<?xml version="1.0" encoding="UTF-8" standalone="no"?>
<!-- Generator: Adobe Illustrator 19.2.1, SVG Export Plug-In . SVG Version: 6.00 Build 0)  -->

<svg
   xmlns:dc="http://purl.org/dc/elements/1.1/"
   xmlns:cc="http://creativecommons.org/ns#"
   xmlns:rdf="http://www.w3.org/1999/02/22-rdf-syntax-ns#"
   xmlns:svg="http://www.w3.org/2000/svg"
   xmlns="http://www.w3.org/2000/svg"
   xmlns:xlink="http://www.w3.org/1999/xlink"
   xmlns:sodipodi="http://sodipodi.sourceforge.net/DTD/sodipodi-0.dtd"
   xmlns:inkscape="http://www.inkscape.org/namespaces/inkscape"
   version="1.1"
   id="Layer_1"
   x="0px"
   y="0px"
   viewBox="0 0 126.90986 121.05071"
   xml:space="preserve"
   sodipodi:docname="map.svg"
   inkscape:version="0.92.1 r15371"
   width="126.90986"
   height="121.0507"><metadata
     id="metadata13"><rdf:RDF><cc:Work
         rdf:about=""><dc:format>image/svg+xml</dc:format><dc:type
           rdf:resource="http://purl.org/dc/dcmitype/StillImage" /><dc:title></dc:title></cc:Work></rdf:RDF></metadata><defs
     id="defs11"><clipPath
       id="SVGID_2_"><use
         height="100%"
         width="100%"
         y="0"
         x="0"
         xlink:href="#SVGID_1_"
         style="overflow:visible"
         id="use11" /></clipPath><clipPath
       id="clipPath3711"><use
         height="100%"
         width="100%"
         y="0"
         x="0"
         xlink:href="#SVGID_1_"
         style="overflow:visible"
         id="use3709" /></clipPath><rect
       id="SVGID_1_"
       x="296"
       y="224"
       width="46.799999"
       height="33" /></defs><sodipodi:namedview
     pagecolor="#ffffff"
     bordercolor="#666666"
     borderopacity="1"
     objecttolerance="10"
     gridtolerance="10"
     guidetolerance="10"
     inkscape:pageopacity="0"
     inkscape:pageshadow="2"
     inkscape:window-width="1920"
     inkscape:window-height="1017"
     id="namedview9"
     showgrid="false"
     inkscape:zoom="1.775"
     inkscape:cx="64.843374"
     inkscape:cy="51.942038"
     inkscape:window-x="1912"
     inkscape:window-y="-8"
     inkscape:window-maximized="1"
     inkscape:current-layer="layer2"
     fit-margin-top="0"
     fit-margin-left="0"
     fit-margin-right="0"
     fit-margin-bottom="0"
     showguides="true"
     inkscape:guide-bbox="true"><sodipodi:guide
       position="64.225353,219.15495"
       orientation="1,0"
       id="guide4550"
       inkscape:locked="false" /><sodipodi:guide
       position="-256.33803,59.154936"
       orientation="0,1"
       id="guide4552"
       inkscape:locked="false" /></sodipodi:namedview><g
     inkscape:groupmode="layer"
     id="layer3"
     inkscape:label="Circle"
     transform="translate(-256.84506,-179.77465)"><ellipse
       id="path3699"
       cx="320.29999"
       cy="240.3"
       rx="63.454929"
       ry="60.525352"
       style="fill:#317f6d;fill-opacity:1" /><path
       style="fill:#317f6d;fill-opacity:0;stroke-width:0.5633803"
       d="m 313.31415,295.64064 c -27.97398,-4.68952 -49.67269,-27.42502 -51.81961,-54.29559 -1.26862,-15.87786 3.51738,-30.90973 13.60652,-42.73537 27.56173,-32.30555 79.79822,-29.29899 102.75122,5.91402 14.83118,22.75304 12.29763,51.52212 -6.30695,71.61678 -14.4104,15.56457 -36.86085,23.08266 -58.23118,19.50016 z"
       id="path4506"
       inkscape:connector-curvature="0" /><path
       style="fill:#317f6d;fill-opacity:0;stroke-width:0.5633803"
       d="m 313.31415,295.64064 c -27.97398,-4.68952 -49.67269,-27.42502 -51.81961,-54.29559 -1.26862,-15.87786 3.51738,-30.90973 13.60652,-42.73537 27.56173,-32.30555 79.79822,-29.29899 102.75122,5.91402 14.83118,22.75304 12.29763,51.52212 -6.30695,71.61678 -14.4104,15.56457 -36.86085,23.08266 -58.23118,19.50016 z"
       id="path4508"
       inkscape:connector-curvature="0" /><path
       style="fill:#317f6d;fill-opacity:0;stroke-width:0.5633803"
       d="m 313.31415,295.64064 c -27.97398,-4.68952 -49.67269,-27.42502 -51.81961,-54.29559 -1.26862,-15.87786 3.51738,-30.90973 13.60652,-42.73537 27.56173,-32.30555 79.79822,-29.29899 102.75122,5.91402 14.83118,22.75304 12.29763,51.52212 -6.30695,71.61678 -14.4104,15.56457 -36.86085,23.08266 -58.23118,19.50016 z"
       id="path4510"
       inkscape:connector-curvature="0" /><path
       style="fill:#317f6d;fill-opacity:0;stroke-width:0.5633803"
       d="m 313.31415,295.64064 c -27.97398,-4.68952 -49.67269,-27.42502 -51.81961,-54.29559 -1.26862,-15.87786 3.51738,-30.90973 13.60652,-42.73537 27.56173,-32.30555 79.79822,-29.29899 102.75122,5.91402 14.83118,22.75304 12.29763,51.52212 -6.30695,71.61678 -14.4104,15.56457 -36.86085,23.08266 -58.23118,19.50016 z"
       id="path4512"
       inkscape:connector-curvature="0" /><path
       style="fill:#317f6d;fill-opacity:0;stroke-width:0.5633803"
       d="m 313.31415,295.64064 c -27.97398,-4.68952 -49.67269,-27.42502 -51.81961,-54.29559 -1.26862,-15.87786 3.51738,-30.90973 13.60652,-42.73537 27.56173,-32.30555 79.79822,-29.29899 102.75122,5.91402 14.83118,22.75304 12.29763,51.52212 -6.30695,71.61678 -14.4104,15.56457 -36.86085,23.08266 -58.23118,19.50016 z"
       id="path4514"
       inkscape:connector-curvature="0" /></g><g
     inkscape:groupmode="layer"
     id="layer2"
     inkscape:label="icon"
     style="display:inline"
     transform="translate(-256.84506,-179.77465)"><g
       id="g4640"
       transform="translate(0.7704093,-0.6295853)"
       style="fill:#ffffff;fill-opacity:1"><path
         id="path4636"
         d="m 355.9,243.2 3.4,-26.7 -25,-9.5 -28,13.4 -26.3,-11.1 3.7,29.1 -3.4,28.8 27.6,5.2 26.5,-5 25.1,5.8 z m -48,26.3 -24.4,-4.6 3.1,-26.3 -3.1,-24.5 22.7,9.6 28.1,-13.4 21.7,8.2 -3.1,24.7 3.1,26.2 -21.6,-5 z m 0,0"
         inkscape:connector-curvature="0"
         style="fill:#ffffff;fill-opacity:1" /><path
         id="path4638"
         d="m 346.9,254 c -0.7,0 -1.4,0.2 -2,0.5 -2.3,-1.7 -4.7,-3.7 -4.8,-6.3 -0.2,-3.6 2,-7 -0.5,-10.3 -2.5,-3.2 -8.8,-1.1 -11.2,-3.5 0.4,-0.6 0.6,-1.3 0.6,-2.1 0,-2.2 -1.8,-4 -4,-4 -2.2,0 -4,1.8 -4,4 0,1.3 0.6,2.4 1.5,3.1 -0.4,1 -0.6,2 -0.7,3.1 -0.1,1.7 0.4,3.3 0.1,5 -0.3,1.4 -2.2,1.3 -3.3,1.3 -2.6,0 -6.4,-0.5 -8.1,1.4 -0.5,-0.4 -1.1,-0.6 -1.7,-0.7 -0.4,-3.4 0.3,-6.8 -2.8,-9.4 -1.9,-1.7 -5.1,-2.4 -6.9,-4.3 0.4,-0.6 0.6,-1.3 0.6,-2.1 0,-2.2 -1.8,-4 -4,-4 -2.2,0 -4,1.8 -4,4 0,2.2 1.8,4 4,4 0.7,0 1.4,-0.2 2,-0.6 1.3,1.3 3.2,2.2 4.9,3.1 2.2,1.1 3.8,2.6 4.1,5.2 0.2,1.4 0.1,2.8 0.2,4.2 -1.6,0.5 -2.8,2 -2.8,3.8 0,2.2 1.8,4 4,4 2.2,0 4,-1.8 4,-4 0,-0.5 -0.1,-1 -0.3,-1.5 1.3,-2.4 7.4,-0.8 9.7,-1.5 1.7,-0.6 2.3,-2.1 2.4,-3.8 0.1,-1.5 -0.4,-3 -0.1,-4.5 0.1,-0.6 0.2,-1.2 0.5,-1.8 0.2,0 0.4,0.1 0.7,0.1 0.7,0 1.4,-0.2 1.9,-0.5 2.5,2.5 7.4,0.8 10.5,2.7 3.7,2.2 -0.1,8.5 1.1,11.8 0.8,2.3 2.9,4 5,5.6 -0.4,0.6 -0.6,1.3 -0.6,2.1 0,2.2 1.8,4 4,4 2.2,0 4,-1.8 4,-4 0,-2.3 -1.8,-4.1 -4,-4.1 z m 0,0"
         inkscape:connector-curvature="0"
         style="fill:#ffffff;fill-opacity:1" /></g></g></svg>