<?xml version="1.0" encoding="UTF-8" standalone="no"?>
<!-- Generator: Adobe Illustrator 19.2.1, SVG Export Plug-In . SVG Version: 6.00 Build 0)  -->

<svg
   xmlns:dc="http://purl.org/dc/elements/1.1/"
   xmlns:cc="http://creativecommons.org/ns#"
   xmlns:rdf="http://www.w3.org/1999/02/22-rdf-syntax-ns#"
   xmlns:svg="http://www.w3.org/2000/svg"
   xmlns="http://www.w3.org/2000/svg"
   xmlns:xlink="http://www.w3.org/1999/xlink"
   xmlns:sodipodi="http://sodipodi.sourceforge.net/DTD/sodipodi-0.dtd"
   xmlns:inkscape="http://www.inkscape.org/namespaces/inkscape"
   version="1.1"
   id="Layer_1"
   x="0px"
   y="0px"
   viewBox="0 0 126.90986 121.05071"
   xml:space="preserve"
   sodipodi:docname="phone.svg"
   inkscape:version="0.92.1 r15371"
   width="126.90986"
   height="121.0507"><metadata
     id="metadata13"><rdf:RDF><cc:Work
         rdf:about=""><dc:format>image/svg+xml</dc:format><dc:type
           rdf:resource="http://purl.org/dc/dcmitype/StillImage" /><dc:title></dc:title></cc:Work></rdf:RDF></metadata><defs
     id="defs11"><clipPath
       id="SVGID_2_"><use
         height="100%"
         width="100%"
         y="0"
         x="0"
         xlink:href="#SVGID_1_"
         style="overflow:visible"
         id="use11" /></clipPath><clipPath
       id="clipPath3711"><use
         height="100%"
         width="100%"
         y="0"
         x="0"
         xlink:href="#SVGID_1_"
         style="overflow:visible"
         id="use3709" /></clipPath><rect
       id="SVGID_1_"
       x="296"
       y="224"
       width="46.799999"
       height="33" /></defs><sodipodi:namedview
     pagecolor="#ffffff"
     bordercolor="#666666"
     borderopacity="1"
     objecttolerance="10"
     gridtolerance="10"
     guidetolerance="10"
     inkscape:pageopacity="0"
     inkscape:pageshadow="2"
     inkscape:window-width="1920"
     inkscape:window-height="1017"
     id="namedview9"
     showgrid="false"
     inkscape:zoom="1.775"
     inkscape:cx="64.843374"
     inkscape:cy="51.942038"
     inkscape:window-x="1912"
     inkscape:window-y="-8"
     inkscape:window-maximized="1"
     inkscape:current-layer="layer2"
     fit-margin-top="0"
     fit-margin-left="0"
     fit-margin-right="0"
     fit-margin-bottom="0"
     showguides="true"
     inkscape:guide-bbox="true"><sodipodi:guide
       position="64.225353,219.15495"
       orientation="1,0"
       id="guide4550"
       inkscape:locked="false" /><sodipodi:guide
       position="-256.33803,59.154936"
       orientation="0,1"
       id="guide4552"
       inkscape:locked="false" /></sodipodi:namedview><g
     inkscape:groupmode="layer"
     id="layer3"
     inkscape:label="Circle"
     transform="translate(-256.84506,-179.77465)"><ellipse
       id="path3699"
       cx="320.29999"
       cy="240.3"
       rx="63.454929"
       ry="60.525352"
       style="fill:#317f6d;fill-opacity:1" /><path
       style="fill:#317f6d;fill-opacity:0;stroke-width:0.5633803"
       d="m 313.31415,295.64064 c -27.97398,-4.68952 -49.67269,-27.42502 -51.81961,-54.29559 -1.26862,-15.87786 3.51738,-30.90973 13.60652,-42.73537 27.56173,-32.30555 79.79822,-29.29899 102.75122,5.91402 14.83118,22.75304 12.29763,51.52212 -6.30695,71.61678 -14.4104,15.56457 -36.86085,23.08266 -58.23118,19.50016 z"
       id="path4506"
       inkscape:connector-curvature="0" /><path
       style="fill:#317f6d;fill-opacity:0;stroke-width:0.5633803"
       d="m 313.31415,295.64064 c -27.97398,-4.68952 -49.67269,-27.42502 -51.81961,-54.29559 -1.26862,-15.87786 3.51738,-30.90973 13.60652,-42.73537 27.56173,-32.30555 79.79822,-29.29899 102.75122,5.91402 14.83118,22.75304 12.29763,51.52212 -6.30695,71.61678 -14.4104,15.56457 -36.86085,23.08266 -58.23118,19.50016 z"
       id="path4508"
       inkscape:connector-curvature="0" /><path
       style="fill:#317f6d;fill-opacity:0;stroke-width:0.5633803"
       d="m 313.31415,295.64064 c -27.97398,-4.68952 -49.67269,-27.42502 -51.81961,-54.29559 -1.26862,-15.87786 3.51738,-30.90973 13.60652,-42.73537 27.56173,-32.30555 79.79822,-29.29899 102.75122,5.91402 14.83118,22.75304 12.29763,51.52212 -6.30695,71.61678 -14.4104,15.56457 -36.86085,23.08266 -58.23118,19.50016 z"
       id="path4510"
       inkscape:connector-curvature="0" /><path
       style="fill:#317f6d;fill-opacity:0;stroke-width:0.5633803"
       d="m 313.31415,295.64064 c -27.97398,-4.68952 -49.67269,-27.42502 -51.81961,-54.29559 -1.26862,-15.87786 3.51738,-30.90973 13.60652,-42.73537 27.56173,-32.30555 79.79822,-29.29899 102.75122,5.91402 14.83118,22.75304 12.29763,51.52212 -6.30695,71.61678 -14.4104,15.56457 -36.86085,23.08266 -58.23118,19.50016 z"
       id="path4512"
       inkscape:connector-curvature="0" /><path
       style="fill:#317f6d;fill-opacity:0;stroke-width:0.5633803"
       d="m 313.31415,295.64064 c -27.97398,-4.68952 -49.67269,-27.42502 -51.81961,-54.29559 -1.26862,-15.87786 3.51738,-30.90973 13.60652,-42.73537 27.56173,-32.30555 79.79822,-29.29899 102.75122,5.91402 14.83118,22.75304 12.29763,51.52212 -6.30695,71.61678 -14.4104,15.56457 -36.86085,23.08266 -58.23118,19.50016 z"
       id="path4514"
       inkscape:connector-curvature="0" /></g><g
     inkscape:groupmode="layer"
     id="layer2"
     inkscape:label="icon"
     style="display:inline"
     transform="translate(-256.84506,-179.77465)"><g
       id="g4634"
       transform="translate(2.4704093,-2.7295853)"
       style="fill:#ffffff;fill-opacity:1"><g
         id="g4590"
         style="fill:#ffffff;fill-opacity:1"><path
           id="path4588"
           d="m 333.7,203 h -29.3 c -3,0 -5.4,2.4 -5.4,5.4 v 63.8 c 0,3 2.4,5.4 5.4,5.4 h 29.3 c 3,0 5.4,-2.4 5.4,-5.4 v -63.8 c 0,-3 -2.4,-5.4 -5.4,-5.4 z m -18.3,3.2 h 7.2 c 0.3,0 0.5,0.2 0.5,0.5 0,0.3 -0.2,0.5 -0.5,0.5 h -7.2 c -0.3,0 -0.5,-0.2 -0.5,-0.5 0.1,-0.3 0.3,-0.5 0.5,-0.5 z m -7.1,-1.1 c 0.4,0 0.8,0.3 0.8,0.8 0,0.5 -0.3,0.8 -0.8,0.8 -0.4,0 -0.8,-0.3 -0.8,-0.8 0,-0.5 0.4,-0.8 0.8,-0.8 z m -3.4,-0.5 c 0.7,0 1.2,0.5 1.2,1.2 0,0.7 -0.5,1.2 -1.2,1.2 -0.7,0 -1.2,-0.5 -1.2,-1.2 0,-0.7 0.5,-1.2 1.2,-1.2 z m 16,70.2 h -3.8 c -1.2,0 -2.2,-1 -2.2,-2.2 0,-1.2 1,-2.2 2.2,-2.2 h 3.8 c 1.2,0 2.2,1 2.2,2.2 0,1.2 -1,2.2 -2.2,2.2 z m 15.9,-6 h -35.5 v -57.1 h 35.5 z m 0,0"
           inkscape:connector-curvature="0"
           style="fill:#ffffff;fill-opacity:1" /></g><g
         id="g4612"
         style="fill:#ffffff;fill-opacity:1"><path
           id="path4592"
           d="m 339.1,260.4 c 0,0 0,0 0,0 v -45.5 c 0,-3.1 -1.4,-5.6 -3.1,-5.6 h -33.9 c -1.7,0 -3.1,2.5 -3.1,5.6 v 49.6 c 0,3.1 1.4,5.6 3.1,5.6 h 11.3 c 0,0 0,0 0,0 0,0 0,0 0,0 H 336 c 1.7,0 3.1,-2.5 3.1,-5.5 v 0 c 0,0 0,0 0,0 z m -28.7,-49 c 0.3,3.5 1.1,8.6 2.6,13.2 1,3 2.3,5.5 3.7,7.5 1.7,2.4 3.7,4 5.9,4.8 6.7,2.5 11.8,6.8 15.3,12.7 v 7 c -2.9,-7.2 -8.3,-12.3 -15.8,-15.2 -4.9,-1.8 -8.6,-6.7 -11.3,-14.5 -2.2,-6.5 -2.8,-12.8 -3,-15.5 z m 9.9,0 c 2.3,0 3.5,1.9 3.8,5.8 0.3,4.4 1.4,5.3 2.6,6.3 0.1,0.1 0.2,0.1 0.3,0.2 0.5,0.4 0.6,1.2 0.9,2.5 0.2,0.9 0.4,1.8 0.7,2.8 0.9,2.5 2.1,2.3 3.1,2.2 0.7,-0.1 1.4,-0.2 2.1,0.5 0.6,0.5 0.8,1.5 1.1,2.5 0.5,1.7 1,3.8 3,4.3 v 8.4 c -3.6,-5.5 -8.6,-9.5 -15.1,-11.9 -3.7,-1.4 -6.7,-5.2 -8.8,-11.4 -1.7,-4.9 -2.3,-9.8 -2.5,-12 h 8.8 z m 17.6,3.5 v 21.4 c -1.2,-0.4 -1.5,-1.6 -1.9,-3.1 -0.3,-1.2 -0.7,-2.6 -1.6,-3.5 -1,-0.9 -2,-0.8 -2.7,-0.7 -1,0.1 -1.6,0.2 -2.1,-1.2 -0.3,-0.7 -0.4,-1.5 -0.6,-2.3 -0.3,-1.4 -0.6,-2.9 -1.5,-3.7 -0.1,-0.1 -0.2,-0.1 -0.3,-0.2 -1.1,-0.9 -1.7,-1.4 -1.9,-4.6 -0.2,-2.4 -0.6,-4.3 -1.4,-5.6 H 336 c 1,0 1.9,1.6 1.9,3.5 z m -31.3,-3.5 c 0.3,4.4 1.2,10.8 3.2,16.6 1.3,3.8 2.8,6.9 4.6,9.4 2.1,3 4.6,5 7.4,6.1 8.2,3.1 13.6,8.8 16.1,17.1 v 1.8 c -0.8,-0.9 -1.4,-1.1 -1.9,-1.3 -0.7,-0.3 -1,-0.4 -1.4,-2.5 -0.3,-1.6 -0.9,-2.8 -1.7,-3.5 -0.7,-0.5 -1.9,-0.8 -3.5,0.6 -0.4,0.4 -0.9,0.3 -1.4,0.2 -0.8,-0.1 -1.6,-0.2 -2.5,1 -1.8,2.5 -2.4,5.1 -2.9,7.2 -0.6,2.6 -0.9,3.8 -3,3.8 h -4.2 c 0.5,-1 0.8,-2.2 0.9,-3.5 0.1,-2.3 -0.7,-4.4 -2.1,-5.5 -0.2,-0.1 -0.3,-0.3 -0.5,-0.4 -1.9,-1.5 -2.7,-2.3 -2.3,-5.2 0.5,-4 -0.1,-7.1 -1.6,-8 -0.6,-0.4 -0.9,-0.9 -1.1,-1.5 -0.2,-0.7 -0.1,-1.6 0.2,-2.6 0.1,-0.2 0.1,-0.4 0.2,-0.6 0.6,-2.2 1.4,-5.3 0.4,-8.3 -0.8,-2.3 -2.4,-2.8 -3.7,-3.1 -0.8,-0.2 -1.7,-0.5 -1.9,-1.1 -0.1,-0.3 -0.1,-0.9 0,-1.7 0.6,-3.3 0.9,-8 0.6,-9.7 -0.6,-2.9 -2.4,-4.3 -3.4,-4.9 0.3,-0.3 0.6,-0.5 1,-0.5 h 4.5 z m -6.4,53.1 v -49.6 c 0,-0.4 0,-0.8 0.1,-1.2 0.3,0.1 0.8,0.3 1.3,0.8 0.7,0.5 1.5,1.5 1.8,3 0.2,0.8 0,4.6 -0.6,8.4 -0.2,1.4 -0.2,2.5 0.1,3.4 0.5,1.5 1.6,1.8 2.7,2.1 1.2,0.3 2.3,0.6 2.8,2.1 0.7,2 0.1,4.2 -0.5,6.3 -0.1,0.2 -0.1,0.4 -0.2,0.6 -0.5,2 -0.4,3.5 -0.2,4.4 0.3,1.2 0.9,2.2 1.8,2.7 1.4,0.9 1,4.4 0.9,5.5 -0.6,4.7 1.2,6.2 3,7.6 0.2,0.1 0.3,0.3 0.5,0.4 0.9,0.7 1.4,2.1 1.4,3.4 0,1.5 -0.7,2.8 -1.9,3.6 h -1.7 c 0.2,-1 0.6,-1.9 1.2,-2.2 0.3,-0.2 0.5,-0.4 0.7,-0.6 0.2,-0.2 0.2,-0.5 0.2,-0.9 0,-0.3 -0.1,-0.7 -0.3,-0.9 -0.1,-0.1 -0.2,-0.2 -0.2,-0.2 -0.2,-0.1 -0.3,-0.3 -0.5,-0.4 v 0 c -0.9,-0.7 -2,-1.6 -2.9,-3.2 -1,-1.9 -1.2,-4.2 -0.8,-7.1 0.1,-0.9 0.1,-1.6 0.1,-2 0,-0.6 -0.3,-1 -0.6,-1 -0.3,0 -0.6,0.6 -0.5,1.1 0,0.2 0,0.6 -0.1,1.3 -1,7.7 2,10.8 3.9,12.4 -0.7,0.7 -1.2,1.9 -1.4,3.3 0,0.1 0,0.2 0,0.3 H 302 c -1,0.1 -1.8,-1.5 -1.8,-3.4 z M 336,268 h -10.2 c 0.2,-0.7 0.3,-1.2 0.3,-1.3 0.4,-1.7 0.7,-3 1.6,-4.4 0.3,-0.4 0.3,-1 0.1,-1.5 -0.2,-0.5 -0.6,-0.5 -0.8,-0.2 -1.2,1.7 -1.6,3.4 -2,5.2 -0.1,0.5 -0.4,1.5 -0.6,2.1 h -1.5 c 0.4,-0.9 0.7,-1.9 0.9,-3 0.4,-2 1,-4.2 2.5,-6.3 0.5,-0.7 1,-0.6 1.7,-0.6 0.6,0.1 1.3,0.1 2,-0.5 1,-0.9 1.8,-1 2.5,-0.5 0.5,0.4 0.9,1.1 1.1,2.2 0.6,3 1.2,3.5 2.2,3.9 0.6,0.3 1.2,0.5 2.1,1.8 -0.2,1.8 -1,3.1 -1.9,3.1 z m 0,0"
           inkscape:connector-curvature="0"
           style="fill:#ffffff;fill-opacity:1" /><path
           id="path4594"
           d="m 319.5,227.2 c 0.3,0 0.6,-0.1 0.8,-0.3 1.4,-0.9 2.2,-4 1.6,-6.9 -0.6,-2.9 -2.2,-4.5 -3.7,-3.6 -1.4,0.9 -2.2,4 -1.6,6.9 0.6,2.4 1.7,3.9 2.9,3.9 z m -0.8,-8.8 c 0.1,-0.1 0.3,-0.1 0.5,-0.1 0.7,0 1.4,1 1.7,2.4 0.4,1.8 0,3.7 -0.9,4.2 -0.8,0.5 -1.8,-0.5 -2.2,-2.3 -0.3,-1.8 0.1,-3.7 0.9,-4.2 z m 0,0"
           inkscape:connector-curvature="0"
           style="fill:#ffffff;fill-opacity:1" /><path
           id="path4596"
           d="m 316.1,254 c 0.4,0.6 0.6,1.5 0.9,2.5 0.4,1.6 1,3.7 2.4,3.7 0.3,0 0.7,-0.1 1.1,-0.4 1.1,-0.8 2.5,-2.9 2.8,-5.9 0.2,-1.6 0,-3.9 -1.4,-6.1 -1.4,-2.2 -3.4,-4.5 -5.5,-3.6 -1,0.4 -1.6,1.5 -1.8,3 -0.3,2.3 0.3,5 1.5,6.8 z m -0.4,-6.1 c 0.1,-0.8 0.4,-1.3 0.9,-1.5 0.2,-0.1 0.4,-0.1 0.7,-0.1 0.9,0 2.2,0.7 3.8,3.3 0.8,1.3 1.1,2.6 1,4.1 -0.2,2 -1.2,3.7 -2.1,4.3 -1,0.7 -1.3,0 -2,-2.3 -0.3,-1.1 -0.6,-2.3 -1.2,-3.2 -0.8,-1.4 -1.2,-3.3 -1.1,-4.6 z m 0,0"
           inkscape:connector-curvature="0"
           style="fill:#ffffff;fill-opacity:1" /><path
           id="path4598"
           d="m 326.8,218.4 c 0.1,0.4 0.3,0.6 0.5,0.6 0.1,0 0.2,0 0.3,-0.1 0.3,-0.3 0.4,-0.9 0.3,-1.4 0,0 -0.1,-0.3 -0.1,-1 0,-0.6 -0.3,-1 -0.7,-0.9 -0.3,0.1 -0.6,0.6 -0.5,1.2 0,0.8 0.1,1.3 0.2,1.6 z m 0,0"
           inkscape:connector-curvature="0"
           style="fill:#ffffff;fill-opacity:1" /><path
           id="path4600"
           d="m 330.2,224.7 c 0.1,0.5 0.2,1.1 0.3,1.5 0.1,0.4 0.3,0.6 0.5,0.6 0.1,0 0.3,0 0.4,-0.1 0.3,0 0.6,-0.1 1,-0.1 0.9,0 1.7,0.3 2.5,1 0.2,0.2 0.4,0.5 0.6,0.7 0.1,0.1 0.2,0.2 0.4,0.2 0.2,0 0.4,-0.1 0.5,-0.4 0.2,-0.5 0.2,-1.1 -0.1,-1.5 -0.3,-0.3 -0.5,-0.7 -0.8,-0.9 -0.9,-0.9 -1.9,-1.3 -3,-1.3 -0.4,0 -0.7,0 -1.1,0.1 0,-0.2 -0.1,-0.4 -0.1,-0.6 -0.2,-1.1 -0.5,-2.7 -1.3,-4.1 -0.2,-0.4 -0.6,-0.5 -0.8,-0.1 -0.2,0.4 -0.3,1.1 -0.1,1.5 0.6,1.2 0.9,2.5 1.1,3.5 z m 0,0"
           inkscape:connector-curvature="0"
           style="fill:#ffffff;fill-opacity:1" /><path
           id="path4602"
           d="m 306.4,245.7 c -0.1,-0.5 -0.5,-0.8 -0.8,-0.6 -0.3,0.2 -0.4,0.8 -0.3,1.4 0.2,0.8 0.4,1.5 0.7,2.1 0.1,0.3 0.3,0.4 0.5,0.4 0.1,0 0.3,-0.1 0.4,-0.2 0.3,-0.4 0.3,-1 0.1,-1.5 -0.3,-0.5 -0.5,-1.1 -0.6,-1.6 z m 0,0"
           inkscape:connector-curvature="0"
           style="fill:#ffffff;fill-opacity:1" /><path
           id="path4604"
           d="m 306.2,236.1 c -0.1,0.6 -0.3,1.3 -0.4,1.7 -0.1,0.5 0,1.2 0.3,1.4 0.1,0.1 0.2,0.1 0.3,0.1 0.2,0 0.4,-0.2 0.5,-0.6 0.5,-1.8 0.7,-2.8 0.6,-3.5 0,-0.3 -0.1,-0.6 -0.3,-0.7 -0.3,-0.3 -1,-0.5 -1.7,-0.7 -0.8,-0.2 -1.7,-0.5 -2.5,-1.2 -0.3,-0.3 -0.6,-0.1 -0.8,0.4 -0.2,0.5 0,1.2 0.2,1.4 1,0.9 2,1.2 2.8,1.4 0.2,0.1 0.7,0.2 1,0.3 z m 0,0"
           inkscape:connector-curvature="0"
           style="fill:#ffffff;fill-opacity:1" /><path
           id="path4606"
           d="m 302.1,218.5 c 0,-0.6 -0.3,-1 -0.6,-1 0,0 0,0 0,0 -0.3,0 -0.6,0.5 -0.6,1.1 0,0.5 0,1.5 -0.2,3 -0.1,0.6 0.2,1.1 0.5,1.2 0,0 0.1,0 0.1,0 0.3,0 0.5,-0.4 0.6,-0.9 0.2,-1.4 0.3,-2.7 0.2,-3.4 z m 0,0"
           inkscape:connector-curvature="0"
           style="fill:#ffffff;fill-opacity:1" /><path
           id="path4608"
           d="m 332.3,260 c 0,-0.1 0,-0.1 0,-0.2 -0.1,-0.4 -0.3,-0.6 -0.5,-0.6 0,0 0,0 -0.1,0 -0.2,0 -0.6,0.1 -1.1,0.6 -0.3,0.3 -0.6,0.5 -1,0.6 -0.3,0.1 -0.5,0.7 -0.5,1.2 0.1,0.6 0.4,0.9 0.7,0.8 0.4,-0.2 0.9,-0.4 1.2,-0.8 0.1,-0.1 0.2,-0.1 0.3,-0.2 0.4,1.6 0.8,2.9 1.4,3.9 0.1,0.2 0.3,0.3 0.4,0.3 0.2,0 0.3,-0.1 0.4,-0.3 0.2,-0.4 0.2,-1.1 0,-1.5 -0.5,-0.9 -0.9,-2.2 -1.2,-3.8 z m 0,0"
           inkscape:connector-curvature="0"
           style="fill:#ffffff;fill-opacity:1" /><path
           id="path4610"
           d="m 318.2,251.2 c 0.4,0.4 0.9,1 1.3,1.7 0,0 0.1,0.1 0.1,0.1 0,0 0,0 0,0.1 -0.3,0.3 -0.4,0.9 -0.3,1.4 v 0.1 c 0.1,0.3 0.2,0.5 0.4,0.6 0,0 0.1,0 0.1,0 0.1,0 0.3,-0.1 0.4,-0.3 0.1,-0.3 0.5,-0.9 0.6,-1.7 0.1,-0.6 -0.1,-1.2 -0.5,-1.9 -0.5,-0.8 -1.1,-1.5 -1.6,-2 -0.3,-0.3 -0.6,-0.1 -0.8,0.5 -0.1,0.5 0,1.2 0.3,1.4 z m 0,0"
           inkscape:connector-curvature="0"
           style="fill:#ffffff;fill-opacity:1" /></g></g></g></svg>