<?xml version="1.0" encoding="UTF-8" standalone="no"?>
<!-- Generator: Adobe Illustrator 19.2.1, SVG Export Plug-In . SVG Version: 6.00 Build 0)  -->

<svg
   xmlns:dc="http://purl.org/dc/elements/1.1/"
   xmlns:cc="http://creativecommons.org/ns#"
   xmlns:rdf="http://www.w3.org/1999/02/22-rdf-syntax-ns#"
   xmlns:svg="http://www.w3.org/2000/svg"
   xmlns="http://www.w3.org/2000/svg"
   xmlns:sodipodi="http://sodipodi.sourceforge.net/DTD/sodipodi-0.dtd"
   xmlns:inkscape="http://www.inkscape.org/namespaces/inkscape"
   inkscape:version="0.92.1 r15371"
   sodipodi:docname="transandalus-map.svg"
   xml:space="preserve"
   viewBox="0 0 750.8717 438.84149"
   y="0px"
   x="0px"
   id="Plan_1"
   version="1.1"
   width="750.8717"
   height="438.84149"
   inkscape:label="map-ca"><metadata
     id="metadata25"><rdf:RDF><cc:Work
         rdf:about=""><dc:format>image/svg+xml</dc:format><dc:type
           rdf:resource="http://purl.org/dc/dcmitype/StillImage" /><dc:title /></cc:Work></rdf:RDF></metadata><defs
     id="defs23" /><sodipodi:namedview
     inkscape:current-layer="Plan_1"
     inkscape:window-maximized="1"
     inkscape:window-y="-8"
     inkscape:window-x="1912"
     inkscape:cy="156.31283"
     inkscape:cx="109.49339"
     inkscape:zoom="1.0077757"
     inkscape:pagecheckerboard="true"
     showgrid="false"
     id="namedview21"
     inkscape:window-height="1017"
     inkscape:window-width="1920"
     inkscape:pageshadow="2"
     inkscape:pageopacity="0"
     guidetolerance="10"
     gridtolerance="10"
     objecttolerance="10"
     borderopacity="1"
     bordercolor="#666666"
     pagecolor="#ffffff"
     fit-margin-top="0"
     fit-margin-left="0"
     fit-margin-right="0"
     fit-margin-bottom="0" /><style
     type="text/css"
     id="style2">
	.st0{fill-rule:evenodd;clip-rule:evenodd;fill:none;stroke:#FFFFFF;stroke-width:2;stroke-miterlimit:3.864;}
</style><path
     class="st0"
     d="m 318.94164,182.24149 c 0,-1 0.2,-2 0.2,-3 0,-0.8 -0.1,-1.2 -1,-0.7 -0.8,0.5 -1.7,-0.8 -2.4,-1 -0.4,-0.1 -1,-0.1 -1.4,-0.2 -0.7,-0.1 -1.4,-0.4 -2,-0.3 0.3,0.3 1.6,0.8 2,0.9 0.7,0.3 2.5,1 2.6,1.9 0.1,1.4 -0.6,2.1 0.8,2.9 0.7,0.4 0.2,0.9 0.7,1.5 0.1,0.1 0.5,0.6 0.7,0.5 0.1,-0.1 -0.1,-1.1 -0.1,-1.3 z m 88.6,67.7 v 0 c -0.1,-0.6 -0.4,-1.1 -0.4,-1.7 0,-0.5 0.2,-0.9 0.2,-1.4 -0.6,-0.2 -1.2,-0.7 -1.9,-0.8 -0.8,-0.2 -2.4,-0.1 -3,-0.6 -0.9,-0.8 -2.4,-3.8 -1.5,-4.9 0.4,-0.5 0,-1 0.1,-1.5 l -0.2,-3 -2.3,-0.2 c -0.7,-0.1 -1.4,-0.3 -2.2,-0.3 -0.6,0 -1.1,-0.2 -1.6,0.3 -0.5,0.6 -1.3,0.2 -1.9,0.1 -1.8,-0.3 -2.2,2.1 -2.9,3.2 -0.2,0.2 -0.7,1.2 -1,0.9 -0.2,-0.2 -0.5,-0.7 -0.8,-0.7 -1.3,0.4 0,1.8 -0.4,2.3 -0.1,0.1 -0.2,0.2 -0.2,0.2 l -0.8,1.1 c -0.7,0.8 -0.9,1.4 -2,1.7 -0.9,0.3 -1.8,0.3 -2.7,0.8 -1.8,1.2 -3.4,-1.1 -5.2,0.9 -0.6,0.6 -2.4,0.3 -3.2,-0.1 -1.1,-0.4 -0.2,-2.2 -0.5,-3.3 -0.3,-0.8 -0.8,-1.2 -1.4,-1.7 -0.3,-0.2 -0.2,-0.9 -0.4,-1.2 l -1,-1.3 c -0.8,0.7 -1.5,1.3 -2.2,1.3 -0.7,0 -1.2,-0.7 -1.6,-1.4 v 0 c -0.5,-0.9 -0.7,-2.2 -0.8,-2.8 -0.1,-2.2 -2.7,-1.2 -2.7,-2.7 0,-1.2 2.5,-1.9 1.5,-2.7 -0.4,-0.4 -1.9,-0.3 -1.9,-0.9 -0.1,-1 1.5,-1.7 1,-2.6 -0.6,-1.1 -2.5,-1.4 -3.4,-2.4 -0.8,-1 -1.6,-1.2 -2.4,-1.2 -0.7,1.3 -2.1,4.1 -3.8,3.5 -1.7,-0.5 -2.1,-1.2 -4,-0.4 -0.9,0.4 -1.8,-1 -2.3,-1.6 -0.9,-1 -2.1,-1.8 -2.8,-3 -0.6,-1.2 0.9,-1.2 0.9,-2 0,-0.6 -1,-0.8 -1.3,-1.4 -0.6,-1.7 -2,-2.6 -2,-4.5 0,-1 0.7,-1.7 0.4,-2.7 -0.6,-2.5 -1.9,-0.9 -3.6,-1.4 l -2.7,0.1 c -0.2,-0.6 -0.2,-1.2 -0.1,-1.5 0.4,-1.4 0.2,-1.8 -1,-2.6 -2.1,-1.4 -2.7,-3.3 -2.9,-5.8 -0.1,-1.4 -1.8,-0.4 -2.1,-1.9 -0.1,-0.6 -0.3,-1 -0.7,-1.3 l 0.4,-1.7 c 0.1,-0.1 0.9,-2.7 0.9,-3.1 0,-0.9 -0.3,-1.7 -0.3,-2.5 0,-0.7 0.5,-1.4 0.4,-1.9 -0.3,-0.9 -0.2,-1.2 -0.1,-2.1 0.1,-1.1 0.1,-2.5 -0.1,-3.6 -0.4,-2.1 -2.4,0.1 -3.3,0.6 -0.4,0.3 -1.8,1.6 -2,1.6 0,-1.3 0.8,-1.7 1.6,-2.6 0.8,-0.9 0.5,-1.9 0.7,-3.1 0.8,-1.7 -0.1,-3.7 -1.2,-4.9 -1.4,-1.6 -2,-2.1 -2.8,-4 -0.6,-1.6 -1.4,-2 -2.8,-2.6 -1.7,-0.7 -3.3,-1.6 -5.2,-0.9 -2.1,0.8 -4.7,3.4 -4,5.8 0.3,1 1.9,2.1 1.9,2.8 v 0 c 0,0 0,0 -0.1,0.1 -0.6,0.1 -1.2,-0.3 -1.7,-0.6 -0.8,-0.3 -1.4,-1.1 -1.3,-2 -1.2,-0.5 -1.6,-4.4 -2.4,-4.3 -0.2,0 -1.6,0.1 -1.6,0.2 -0.1,0.8 1.2,1.4 1.3,2.2 0.2,0.9 0.7,2.3 0.5,3.3 -0.2,1.3 -2.3,-0.4 -3.3,-0.1 -0.7,0.2 -1.4,0.8 -2.1,0.2 -0.8,-0.6 -1.7,-1.6 -2.5,-2.1 -1.7,-1 -5.9,4.5 -7.5,5.1 -1.3,1.3 -3.6,3.2 -5.4,3.6 -1.5,0.4 -3.1,-0.1 -4.4,1 -0.5,0.4 -5.2,7.8 -5.5,4.3 -0.2,-2.3 -1,-2.7 -2.9,-3.8 -1.1,-0.7 -1.6,-1.5 -2.1,-2.6 -0.3,-0.8 -2.6,-2.3 -1,-2.8 2.6,-0.8 -0.8,-1.5 -1.1,-1.8 l -1.4,-1.2 -0.1,-0.2 c 0.4,-1.2 0.4,-3.2 1.4,-3.6 2,-0.8 3.8,4.1 5,-1 0.4,-1.7 3.5,-0.8 4.6,-0.5 1,0.3 1.7,0.2 2.2,0 1,-0.4 1.4,-1.5 2.1,-2.6 l -0.3,-2.5 c 0,-0.7 0,-2.2 -0.4,-2.8 -0.5,-0.8 -0.6,-1.8 -0.3,-2.7 0.5,-1.9 -2.7,-3.1 -3.9,-4.4 -0.8,-0.8 -0.2,-3.1 0.2,-4 2.4,-3.6 -8,-6.3 -8.8,-8.8 -0.3,-0.9 -0.8,-2.9 -0.4,-3.7 0.8,-1.4 -0.5,-3.9 -0.4,-5.2 0,-0.4 0.5,-0.7 0.5,-1.1 0.1,-1.2 -0.6,-1.7 -1.4,-2.3 0,0.1 -3.3,-2.5 -4.1,-2.8 -1.6,-0.6 -2,-2.3 -3.2,-3.3 -2.4,-1.9 0.9,-6 -1.1,-8.4 -1.2,-1.4 -2.2,-2.5 -3.1,-4.2 -0.6,-1.5 -2.2,-1.6 -2,-3.3 0.2,-1.7 -1.2,-2.5 -2.5,-3.4 -0.9,-0.6 -2.9,-0.2 -2.9,-1.8 0,-0.899998 -0.3,-0.899998 -0.8,-1.599998 l -1.8,-1.8 v 0 c 0.6,-0.7 -0.2,-1.6 1.2,-1.9 1.6,-0.3 2.2,-0.3 3.1,-1.6 0.5,-0.9 0.8,-0.6 1.5,-1.1 0.8,-0.6 -0.1,-1.3 -0.1,-1.9 -0.3,-0.8 -0.2,-1.7 0.2,-2.4 0.4,-0.7 -0.1,-1.9 0.9,-2.1 2,-0.5 1.3,-2.6 1.1,-4.1 -0.1,-0.8 -0.7,-3.3 -0.5,-3.9 0,-1.1 -0.7,-3.2 -1.4,-4 -1.3,-1.6 -0.8,-4.1 -1.7,-5.9 -0.4,-0.8 -1.4,-1 -2,-1.7 -0.9,-1.1 -0.7,-2.5 -0.3,-3.8 0.7,-1.9 0.9,-2.8 -0.2,-4.6 -0.5,-0.9 -1.7,-1.5 -1.7,-2.5 0,-1.3 0.9,-4 1.5,-5.2 0.8,-1.6 2.9,-3.2 4.4,-4.3 0.7,-0.5 1.9,-2.7 2.9,-2.5 0.9,0.2 0.6,0.8 1.8,0.8 3,0 1.7,-2.5 3.1,-3.9 0.4,-0.4 1.1,-0.2 1.5,-0.6 0.9,-0.7 1.3,-1.4 2.3,-2.1 0.3,-0.2 1.5,-0.6 1.5,-0.8 0.3,-1.3 1.6,-1.1 2.5,-1.8 1.2,-1.1 -0.6,-1.4 0.6,-2.6 1.3,-1.4 0.6,-2.6 2.6,-1.5 1.3,0.7 0.4,-2.6 0.7,-3.3 0.5,-1.2 0.9,-1 1.4,-0.7 l 0.5,-0.7 c 0.2,-0.6 0.4,-1.2 0.4,-1.9 0,-0.7 0.9,-0.8 1.5,-0.6 1.2,0.4 2.1,1.7 3.4,1.9 0.7,-0.8 1.2,-0.5 2.7,-0.9 0.3,-0.1 -0.3,-2.1 0.6,-3 0.6,-0.6 1.3,-1.3 1.9,-1.9 0.4,-0.4 1,0.1 1.5,-0.2 0.8,-0.6 0.5,-1.4 1.5,-1.6 1.6,-0.4 1.2,-0.9 2.1,-1.9 0.7,-0.8 2.3,-2.7 3.4,-2.8 1.8,-0.1 1,-3.5 2.6,-2.5 0.8,0.5 1.7,1.1 2.3,0.5 0.6,-0.6 -0.4,-1.2 0.5,-1.8999997 0.4,-0.3 1.2,-0.4 2.1,-0.4 v 0 l -0.5,-1.1 c -0.8,-1.6 -1.6,-3.8 -1.6,-5.7 v 0 c 0.6,0 1.4,0.4 2.1,0.4 0.8,0.1 1.7,-0.2 2.5,-0.4 1.5,-0.2 3.5,0.5 4.9,0.8 1,0.3 1.6,0.5 2.7,0.2 0.5,-0.4 1.1,-0.7 1.7,-0.9 0.5,-0.1 0.8,-0.5 1.2,-0.8 l 2.1,-0.9 v 0 c 1,0.2 2,0 3,0.3 1.2,0.3 2.5,1.7 2.5,3 0,0.4 0.1,1.2 0.2,1.6 0.1,0.4 1.6,0.9 2,1 2.2,0.6 4.7,2.3 7.1,1.4 1.7,-0.6 3.1,-0.9 5,-0.5 1,0.2 2.4,-0.3 2.5,1 0.1,1.7999997 0.8,3.6999997 0.9,5.3999997 0.1,1.2 -0.8,3.8 0.2,4.7 1.1,0.5 2.3,0.9 3.2,1.6 2.1,1.7 2.5,1.6 5.4,1.7 1.3,0.1 2.7,1.4 4.1,1.7 1.1,0.2 1.7,1.2 2.7,1.8 1.1,0.7 2.7,-0.1 4,0.5 1.7,0.8 -0.2,2.1 0.9,3.1 l 3.8,0.7 c 1,0.2 1.4,1.5 2.3,2 1.1,0.6 4.3,2.4 4.4,3.7 0.1,1.3 1.3,2.7 2.3,3.4 1.9,1.4 3.1,-1.2 4.3,0.8 0.2,0.4 1.3,2.1 1.9,1.5 0.8,-0.8 1.7,-1.4 1.7,0.3 0,1.4 1.4,1.8 2.5,2 1.2,0.3 1.3,1.1 1.8,2.2 0.6,1.2 1,1 2.1,1.5 1,0.4 2.6,2.8 3.1,3.6 0.8,1.4 0.6,2 2.3,2.5 1.4,0.4 3.2,0.9 4.1,2 0.7,0.9 1.2,0.6 2.2,0.3 0.6,-0.2 1.2,0.8 1.6,1.2 l 7.9,3.6 c 1.6,0.7 3.6,2.2 5.3,2.3 0.2,0 0.4,0 0.6,-0.1 v 0 l 2,2.2 c 0.5,0.6 1.8,0.2 1.8,1.1 0,1 0.3,2.7 0.6,3.6 0.1,0.4 0.3,2.2 1,2.2 0.5,0 1.3,-1.1 1.6,-0.4 0.5,0.9 -0.2,2.1 -0.2,3.1 0,1 0.5,2.4 0.3,3.4 -0.2,0.6 -1.4,2.6 0,2.4 2.4,-0.3 1.4,2.1 1.4,3.8 0,0.8 1,3.2 1.4,4 0.9,1.9 2.9,2.4 3.1,5 0.1,2 1,4.7 -1.3,5.7 -0.9,0 -1.3,-0.3 -2.1,0.3 -0.7,0.6 -0.3,1.899998 -1.2,2.099998 -0.9,0.2 -1.3,0.2 -1.1,1.3 0.6,3.4 -2.9,3.4 -4.3,5.4 -0.5,0.8 -0.2,1.2 0.2,1.7 0.2,0.2 -0.1,1.1 -0.2,1.6 -1.9,0.2 -0.4,3.9 -2.1,5.8 -0.6,0.7 -1.1,1.8 -1.8,2.6 l 1.3,2.8 c 0,1.4 0.9,3.4 1.1,4.9 0.2,1.2 0.2,2.6 0.1,3.9 -0.1,0.8 -0.4,1.7 -1.1,2.2 -1.2,0.7 -1,7.4 -1,8.8 -0.2,2.7 -1.1,5.3 -1.2,8 0,0.4 -0.5,1.6 -0.1,1.8 1.2,0.4 3,0.2 4.4,0.6 1.3,0.3 5.4,0.7 5.7,2.2 0.2,0.8 -1.4,1.8 -1.9,2.2 -1.1,1.1 -1.2,2.3 -1.6,3.8 -0.2,0.4 -0.8,2.9 -0.4,3.1 1.4,0.6 3.8,1.7 5.4,1.8 1.7,0.1 2,1.3 2.9,2.5 0.9,1.2 1.2,1.3 -0.2,2.3 -1.7,1.3 -2.6,2.7 -4,4.1 -0.7,0.7 -1.3,1.1 -2.1,1.6 -0.8,0.6 0,1.4 0.2,2.1 0,0.8 0.8,1.7 1.2,2.4 0.3,0.6 3,-1 4.3,0.4 1.3,1.3 0.7,2 1.4,3.4 0.8,1.9 2.3,4.1 4,5.2 1.1,0.7 4.3,2.9 4.3,4.3 -0.1,0.7 0.2,1.7 0.3,2.4 0.6,0 1.6,0.6 2.2,0.7 0.8,0.1 1.6,0.2 2.4,0.4 0,1 -1.7,1.8 -2.2,2.6 -1.2,2.2 2.7,2.8 3.7,3.5 1.5,1.1 2.7,4.2 3.5,5.8 l 2.8,4.5 v 0 c -2,0 -4.2,-0.6 -6.1,-0.1 -0.8,0.2 -1.5,0.1 -2.3,0.1 -1.1,0 -2.1,0 -3,0.6 -0.4,0.3 -0.7,0.7 -1.1,1 -1.1,1.6 -2.6,1.6 -3.7,3.2 -0.9,1.2 -3,3.3 -3.2,4.8 -0.6,0.4 -2.8,-0.7 -3.7,-0.8 -1.6,-0.1 -2.6,-0.6 -4,0.4 -0.8,0.6 -1.2,1.6 -2.4,1.7 v 0.1 c -0.3,0 -0.3,1.8 -0.3,2.1 -0.1,0.9 0,2.3 -0.4,3.1 -0.4,1.1 -0.6,2.9 -0.8,4 -0.2,1.2 -1.6,2.2 -1.5,3.1 l 0.3,2.8 c 0.2,1.5 -0.9,1.6 -1.6,2.5 l -1.3,1.8 c -2.5,3.9 -4.1,4.5 -6.7,5.5 z"
     id="path6"
     inkscape:connector-curvature="0"
     style="clip-rule:evenodd;display:inline;fill:none;fill-rule:evenodd;stroke:#ffffff;stroke-width:2;stroke-miterlimit:3.86400008"
     inkscape:label="map-co" /><path
     class="st0"
     d="m 318.94164,182.24149 c 0,-1 0.2,-2 0.2,-3 0,-0.8 -0.1,-1.2 -1,-0.7 -0.8,0.5 -1.7,-0.8 -2.4,-1 -0.4,-0.1 -1,-0.1 -1.4,-0.2 -0.7,-0.1 -1.4,-0.4 -2,-0.3 0.3,0.3 1.6,0.8 2,0.9 0.7,0.3 2.5,1 2.6,1.9 0.1,1.4 -0.6,2.1 0.8,2.9 0.7,0.4 0.2,0.9 0.7,1.5 0.1,0.1 0.5,0.6 0.7,0.5 0.1,-0.1 -0.1,-1.1 -0.1,-1.3 z m -71.3,-84.499998 1.8,1.8 c 0.5,0.699998 0.8,0.699998 0.8,1.599998 0,1.6 2,1.2 2.9,1.8 1.2,0.8 2.6,1.7 2.5,3.4 -0.2,1.7 1.4,1.8 2,3.3 0.9,1.7 1.9,2.7 3.1,4.2 2,2.4 -1.3,6.5 1.1,8.4 1.2,0.9 1.6,2.7 3.2,3.3 0.8,0.3 4.1,2.8 4.1,2.8 0.8,0.7 1.5,1.1 1.4,2.3 0,0.4 -0.5,0.6 -0.5,1.1 -0.1,1.3 1.2,3.8 0.4,5.2 -0.5,0.8 0.1,2.8 0.4,3.7 0.8,2.5 11.2,5.2 8.8,8.8 -0.4,0.9 -1,3.1 -0.2,4 1.2,1.3 4.4,2.4 3.9,4.4 -0.2,0.9 -0.2,1.9 0.3,2.7 0.4,0.6 0.4,2.1 0.4,2.8 l 0.3,2.5 c -0.7,1.1 -1.1,2.2 -2.1,2.6 -0.5,0.2 -1.2,0.2 -2.2,0 -1.1,-0.3 -4.2,-1.2 -4.6,0.5 -1.2,5.1 -3,0.2 -5,1 -1,0.4 -1,2.4 -1.4,3.6 l 0.1,0.2 1.4,1.2 c 0.3,0.3 3.6,1 1.1,1.8 -1.6,0.5 0.7,2 1,2.8 0.5,1.1 0.9,2 2.1,2.6 1.8,1.1 2.6,1.5 2.9,3.8 0.3,3.6 5,-3.9 5.5,-4.3 1.4,-1.1 2.9,-0.6 4.4,-1 1.8,-0.4 4.2,-2.3 5.4,-3.6 1.6,-0.6 5.7,-6.1 7.5,-5.1 0.9,0.5 1.7,1.5 2.5,2.1 0.7,0.6 1.5,0 2.1,-0.2 1.1,-0.4 3.1,1.4 3.3,0.1 0.2,-0.9 -0.3,-2.3 -0.5,-3.3 -0.2,-0.8 -1.4,-1.3 -1.3,-2.2 0,-0.1 1.3,-0.2 1.6,-0.2 0.8,0 1.3,3.8 2.4,4.3 -0.1,0.9 0.5,1.6 1.3,2 0.5,0.3 1.1,0.7 1.7,0.6 0,0 0,0 0.1,-0.1 v 0 c 0,-0.6 -1.6,-1.8 -1.9,-2.8 -0.7,-2.4 2,-5.1 4,-5.8 1.9,-0.7 3.5,0.1 5.2,0.9 1.4,0.6 2.2,1 2.8,2.6 0.8,2 1.4,2.4 2.8,4 1.1,1.3 2,3.2 1.2,4.9 -0.2,1.2 0.1,2.1 -0.7,3.1 -0.8,0.9 -1.6,1.3 -1.6,2.6 0.3,0 1.6,-1.4 2,-1.6 0.9,-0.6 2.9,-2.7 3.3,-0.6 0.2,1.1 0.3,2.5 0.1,3.6 -0.1,0.9 -0.2,1.3 0.1,2.1 0.2,0.5 -0.4,1.3 -0.4,1.9 0,0.8 0.3,1.6 0.3,2.5 0,0.4 -0.7,3 -0.9,3.1 l -0.4,1.7 c 0.4,0.3 0.6,0.7 0.7,1.3 0.3,1.4 2,0.5 2.1,1.9 0.2,2.5 0.8,4.4 2.9,5.8 1.1,0.8 1.4,1.2 1,2.6 -0.1,0.4 -0.1,0.9 0.1,1.5 l 2.7,-0.1 c 1.7,0.5 3,-1.1 3.6,1.4 0.2,1 -0.4,1.7 -0.4,2.7 0,1.9 1.4,2.8 2,4.5 0.2,0.7 1.3,0.8 1.3,1.4 -0.1,0.8 -1.5,0.8 -0.9,2 0.7,1.2 1.9,1.9 2.8,3 0.5,0.6 1.4,1.9 2.3,1.6 1.9,-0.8 2.3,-0.1 4,0.4 1.7,0.5 3,-2.2 3.8,-3.5 0.8,0 1.6,0.2 2.4,1.2 0.8,1 2.8,1.3 3.4,2.4 0.5,0.9 -1.1,1.6 -1,2.6 0,0.6 1.5,0.6 1.9,0.9 1.1,0.9 -1.5,1.6 -1.5,2.7 0,1.5 2.5,0.5 2.7,2.7 0,0.6 0.3,1.9 0.8,2.8 v 0 c -1.3,0.5 -3.1,1.4 -4.6,1.4 -2.8,0 -3.8,-2.2 -5.4,0.8 -0.8,1.7 2,0.3 0.4,2.7 -1.4,2.2 2.3,3.2 1.9,4.9 -0.6,2.6 -6,2 -6.3,3.9 -0.1,0.7 -1.5,1 -2.1,1.5 -0.8,1.9 -3,2.2 -2.5,-0.3 0.4,-2.3 -2,-1 -3,-2.3 -0.6,-0.7 0.6,-2.7 0.1,-2.8 -1,-0.2 -2.7,-0.4 -3.6,-0.1 -2,0.7 0.2,4.6 -1.9,5.9 -0.4,0.2 -2.5,0.7 -2.9,0.7 -1.9,-0.3 -1.6,-1.5 -1.7,-3 0,-0.5 -3.3,0.1 -4.1,0.3 -1.7,0.4 -1.4,1.8 -0.6,2.9 1,0.9 4.1,2.1 4.4,3.4 0.3,1.6 -1,4.2 -2.4,5 -1,0.5 -2,0.6 -3,1.2 -1.6,1 -2.5,2.7 -4,3.7 -1.3,1.8 -3.9,1.9 -5.8,2.9 -1.4,0.7 -3.2,2.8 -4.6,3 l -3.8,0.6 c -0.8,0.1 -1.4,0.8 -2.2,1 -1,0.2 -0.9,0 -1.8,-0.2 -0.8,-0.2 -1,1.2 -1.3,1.6 l -1.5,1.9 v 0 l -2.7,3.3 c -1.5,1.5 -3.1,2.3 -4.9,3.1 -1.5,0.7 -2.4,3.6 -3.6,3.6 -1.7,0.1 -4.9,-6.8 -5.9,-8.2 -1.8,-2.2 -3.2,-2.9 -3,-5.9 0,-0.2 0.3,-1.5 0.1,-1.6 v 0 c 0,0.8 -3.4,3.3 -4.1,3.8 -0.7,0.5 -0.7,1.5 -1.2,2.2 -0.5,0.6 -2,1.7 -2.7,2.1 -1.9,1.4 -4.3,2.4 -5.7,4.4 -1.6,2.2 -0.1,4.5 -3.9,3.5 l -1.6,-4.5 c -0.7,-1.9 0.9,-3 2.1,-4.2 1.1,-1.1 2,-2.5 1.9,-4.1 -0.1,-1.7 -0.8,-4.3 -1.5,-5.7 -0.8,0 -3.5,1 -4.4,1.4 -1.5,0.7 -4,0.1 -5.4,1.1 0,3 2.4,3.7 4.1,5.7 2.2,2.6 -1.9,4.9 -3.5,6.3 -0.8,0.7 -3.2,4.6 -4,4.5 -0.6,1.3 -1.7,0.9 -0.7,3 0.3,0.7 1.1,2.3 1.1,3 -1.1,0 -5.2,-2.4 -5.8,-3.4 -1,-1.7 -0.5,-5.9 -3.2,-5.1 -0.6,0.2 -0.6,1.2 -1.5,0.8 -0.6,-0.3 -0.7,-1.2 -1.3,-1.6 -0.9,-0.5 -2,0.4 -3,-0.5 -0.9,-0.8 -1.2,-2 -1.9,-2.9 -0.3,-0.4 -2.1,1.6 -2.5,1.9 -1.4,1 -1.2,3.1 -1.8,4.5 -1.3,3.1 -3.4,1.1 -5.3,1.6 -0.9,-0.1 -1.6,-0.6 -2.6,-0.6 -0.8,0 -1.7,0 -2.5,0.1 -1.7,0.2 -3.6,-0.5 -5.1,0.7 -1.2,0.9 -1.5,0.7 -2.8,1 -1,0.2 -2.2,1.8 -3.2,2.4 -0.6,0.3 -0.7,1.2 -1.4,1.6 -0.4,1.1 -1.2,3.3 -1.4,4.5 -0.1,0.9 0.3,2.3 0.2,2.8 -1.3,0 -3.3,-1.2 -4.9,-1.5 -2.7,-0.4 -4.8,1.1 -7.5,1.1 -1.7,0 -3.4,-0.6 -5.1,-0.8 -0.7,0.2 -3.1,-0.9 -4,-1.1 -1.2,-0.3 -2.6,0 -3.9,-0.2 -3.2,-0.4 -4.6,-2.7 -7.1,-4.1 -1.7,-0.9 -3.6,-1.2 -5.1,-2.1 l -4,-0.9 c -0.3,0.3 -0.7,0.6 -1,0.9 -1.5,1.1 -2.7,1.8 -4.5,0.9 -1.4,-0.7 -2.1,-2.6 -4,-2.1 -1.4,0.4 -2.8,0.7 -3.9,1.1 v 0 l -4.1,-4.6 c 0.2,0.2 0.1,0 0.2,0.1 -0.4,-0.1 -1.4,-1.4 -1.7,-1.8 -0.4,-0.5 -1.1,-0.9 -0.4,-1.2 1.6,-0.7 2.6,-8.1 2.3,-9.8 -0.2,-1.6 -0.4,-3.3 -1.2,-4.7 -0.7,-1.2 -1.8,-3.7 -1.8,-5 -0.1,-1.7 -0.3,-4.8 1,-6.1 0.5,-0.5 1,-0.8 1.5,-1.3 0.5,-0.5 0.1,-0.8 0.9,-1.3 1.4,-0.9 2,-1.3 0.8,-2.8 -1.6,-2 0.2,-2.8 1.9,-4 0.6,-0.4 1.4,-1.3 0.2,-1.5 -0.9,-0.2 -2.2,-1.7 -2.5,-2.6 0.4,-1.7 1,-3.5 1,-5.3 0,-1.4 -0.9,-1.9 -1.1,-3.1 0,-0.2 0.6,-1.4 0.6,-2 0.1,-1.9 0.4,-2.2 1.6,-3.5 0.6,-0.7 0.4,-2.9 0.7,-3.7 -0.5,-2.9 -2.3,-3.9 -4.3,-5.5 l -2,-1.6 c -0.3,-0.3 3.2,-2.7 3.8,-3.1 1.8,-1.2 0.5,-1.1 -0.3,-2.1 -0.5,-0.7 0.1,-1.7 0.4,-2.4 0.5,-1 -0.4,-1.9 0.3,-3.2 0.7,-1.2 2.3,-0.8 3.5,-1.3 1,-0.4 1.3,-0.2 2,-1.1 0.8,-1 -0.4,-3.6 -1.1,-4.5 -0.7,-1 -1.4,-1.8 -1.7,-3 -0.5,-2.2 -1.4,-2.7 -2.6,-4.3 -1.1,-1.5 -1.4,-3.4 -1.7,-5.3 -0.6,-1.5 -0.9,-1.6 -1.9,-2.8 -1.2,-1.4 -3.2,-3.5 -2,-5.5 0.3,-0.6 0.3,-1 0.1,-1.6 -0.4,-1.2 1.1,-1.7 -0.1,-3.1 -2.4,-2.8 -8.2,-1 -11.2,-1.2 -0.7,-0.1 -1.1,-0.4 -1.7,-0.6 -0.3,-0.1 -0.9,0.1 -1.2,0.2 -0.7,0.2 -1.8,0.1 -2.4,-0.3 -1.1,-0.7 0.2,-1 0.7,-1.3 -0.1,-0.4 -0.2,-0.7 -0.3,-1.1 -0.4,-1.1 -0.3,-2.2 0.4,-3.1 0.3,-0.4 1.1,-0.9 1.5,-1.1 0.6,-0.2 1.3,0 1.8,-0.4 0.4,-1 0.2,-2.1 0.7,-3.1 0.7,-1.4 2.4,-2.1 2.1,-3.9 -0.3,-2.1 -0.2,-1.7 1.4,-1.3 3,0.8 3.4,-0.8 5.7,-2.1 1,-0.6 2,-1.6 3.1,-1.9 l 4.2,-1.1 c 1.9,0.2 3.7,-0.8 5.5,-1.2 1.9,-0.4 6.6,-0.2 8.5,0.1 1.6,0.3 -0.9,4 0.5,3.6 1.2,-0.4 3,0.8 3.7,-0.4 0.5,-0.8 0,-2.4 1.1,-3 0.5,-0.3 -0.5,-3.7 -0.2,-4.8 0.9,-2.9 3,-1.8 5.2,-2.7 1.8,-0.1 3.9,-2 5.6,-2 0,-1.3 -1.3,-4.1 -1.6,-5.5 -0.8,0 -1.8,0.7 -2.5,0.5 -2.7,-0.9 4.2,-6.6 4.2,-7.9 -1,0 -1.5,-0.4 -1.9,-1.3 -0.3,-0.6 -0.4,-1.4 -1.2,-1.1 -0.3,0.1 -1.2,0 -1.3,0.1 -0.2,0.2 -0.2,1.8 -0.9,1.4 -0.7,-0.5 -5,-4.8 -5,-5.6 v 0 c 1.3,-0.3 1.7,-0.9 2.8,-1.5 1.2,-0.8 2.3,-2.5 3.7,-2.9 1.4,-0.4 2.4,-1.6 3.8,-1.5 0.9,0.1 2.3,-0.3 3.2,-0.5 1.2,-0.2 2.4,-1.2 3.5,-1.6 1.3,-0.5 3.4,0.1 4.7,0.3 0.7,0 1.1,-0.1 1.6,-0.2 0.5,-1.8 5.1,0 6.4,-0.9 1.2,-0.8 1.8,-4.7 1.8,-6.2 0,-2.3 2.2,-2.3 3.1,-3.9 1.3,-2 -0.2,-3.4 -1.7,-4.3 -1.3,-0.9 0.3,-3.1 0.9,-3.9 1.8,-2.799998 6,-2.599998 5,-6.699998 -0.1,-0.4 2.1,-0.9 2.6,-1.1 1.1,-0.6 -0.2,-1.8 1.8,-1.5 1.5,0.2 2.8,0.1 4.2,-0.5 0.6,-0.9 1.7,0.7 2.6,-0.1 0.7,-0.6 0.7,-1.9 1.8,-1.6 0.8,0.3 1.3,0.3 2.1,0.5 0.5,0.1 2.3,-1.3 2.5,-1.7 0.8,-1.7 1.4,-0.4 2.6,0.2 1.1,0.6 3.7,1.2 3.9,2.3 0,0.4 0.6,1.9 0.2,1.9 -0.5,0 -0.9,-0.9 -1.4,-0.5 -0.9,0.8 0.2,1.8 0.5,2.6 0.4,0.8 -2.9,2.5 -3.7,2.5 -2.1,0 -1.9,1.7 -1.9,3.099998 0,0.7 0.3,5.1 0.7,5.1 1.1,0.1 2.3,0.2 3.3,0.4 3.2,0.6 4.5,-2.9 6,-5 1.1,-1.699998 2.2,-3.899998 4.4,-3.599998 1.5,-0.2 4.9,0.6 5.5,-0.2 z"
     id="path8"
     inkscape:connector-curvature="0"
     style="clip-rule:evenodd;display:inline;fill:none;fill-rule:evenodd;stroke:#ffffff;stroke-width:2;stroke-miterlimit:3.86400008"
     inkscape:label="map-se" /><path
     class="st0"
     d="m 407.54164,249.94149 c 2.7,-1 4.2,-1.6 6,-4 l 1.3,-1.8 c 0.7,-0.9 1.8,-1.1 1.6,-2.5 l -0.3,-2.8 c -0.1,-1 1.3,-1.9 1.5,-3.1 0.2,-1.2 0.4,-3 0.8,-4 0.3,-0.8 0.3,-2.2 0.4,-3.1 0,-0.3 0,-2.1 0.3,-2.1 v -0.1 c 1.2,-0.2 1.5,-1.2 2.4,-1.7 1.4,-1 2.3,-0.5 4,-0.4 0.9,0.1 3.1,1.1 3.7,0.8 0.2,-1.5 2.4,-3.6 3.2,-4.8 1.1,-1.5 2.6,-1.5 3.7,-3.2 0.4,-0.2 0.7,-0.7 1.1,-1 0.9,-0.6 2,-0.6 3,-0.6 0.8,0 1.5,0.1 2.3,-0.1 1.9,-0.5 4.1,0.1 6.1,0.1 v 0 l 2.2,1.9 c 1,0.7 2,0.3 3,0.8 1.6,0.8 3.8,1.5 5.7,1 1.6,-0.4 2.5,-1.2 4.2,-1.2 1.2,0 4.4,0.7 5.2,-0.2 1.4,-1.6 2.4,-3.9 3,-6 0.6,-0.8 1.1,-2 1.6,-3 0.4,-0.8 -0.2,-2.3 -0.2,-2.3 1.9,0 1.9,-2.6 2.2,-3.8 0.1,-0.6 0.6,-1.6 1.3,-1.5 0.3,0 0.2,1.6 0.2,1.9 0.7,0.2 5.1,-1.3 6,-1.7 2.2,-1 3.3,-3.3 5.7,-4.4 1.4,0.1 4,-1.3 5.5,-1.7 1.6,-0.4 2.9,-1.3 4.1,-2.4 1.8,-1.8 4.4,-2.6 6.2,-4.4 0.6,-0.6 2.3,-1 2.4,-2 0.1,-1.1 0.1,-1.8 0.6,-2.8 1,-0.1 2.4,-3.7 3.7,-2.7 0.9,0.6 1.4,1.5 2.5,1.9 0.7,0.3 1.7,0 2.4,0.5 2.2,2 2.6,4.9 6.2,4.9 2.4,0.3 2.9,1.3 5.4,0 2.8,-1.4 5.7,-2 8.6,-3 1.7,-0.6 1.2,-2.1 2,-3.3 0.4,-0.5 0.8,-0.8 1.2,-1.2 0.6,-0.5 0.7,-1.1 1.2,-1.6 0.6,-0.6 0.4,-1.9 1.3,-2.1 0.7,-0.1 1.2,0.2 1.8,0.1 2.1,-0.3 6.8,-2.5 8.6,-0.9 2,1.8 3.7,3.4 6,4.8 1.2,0.6 2.3,0.8 3.7,0.5 1.3,-0.3 1.1,0.2 2,0.7 1.5,0.8 3.5,-3.2 5.5,-2.3 1.7,0.7 5.7,3.4 7.2,1.9 0.6,-0.6 -0.6,-1 -0.6,-1.5 0,-0.3 0.7,-1 0.8,-1.4 0.3,-0.6 -0.4,-1.1 0,-1.7 0.5,-0.7 1.7,-1.1 2.5,-1.6 0.8,-0.1 1.9,-1.1 2.6,-1.6 1.2,-0.9 2.7,-1.5 4,-2.3 1.1,-0.6 2,-1.9 0.6,-2.6 -2,-1.2 -0.3,-3.6 -0.6,-5.2 -0.1,-0.8 -0.8,-1.1 -0.8,-2.1 0,-0.4 0.4,-0.9 0.4,-1.4 0.1,-0.6 -0.1,-1.2 -0.1,-1.8 0.5,-2.4 3.2,-1.3 3.2,-2.9 0,-1.6 0.3,-3.1 1.2,-4.4 0.8,-1.1 1.6,-2 2.6,-2.9 0.7,-0.5 0.4,-1.5 0.8,-2.1 0.5,-0.7 2.2,-3.5 2.5,-7.2 0.1,-1.5 1.7,-1.9 1.9,-2.4 0.5,-2.1 1.3,-4 2.6,-5.7 0.9,-1.2 0.9,0.4 1.8,-0.1 1.4,-0.7 2.1,-2.3 3.1,-3.4 1.5,-0.5 3.4,-3.3 5,-4.3 0.9,-0.6 2.2,0.6 3,1 1.5,0.7 5.6,-3.1 7,-4.2 3.3,-2.5 2.3,-4.4 2.5,-8 0.6,-0.7 0.7,-1.8 1.4,-2.6 2.1,-2.3 6.3,-2.3 9.1,-3.2 v 0 c 0.4,0.1 1,1.1 1.6,1.3 l 2.6,1 c 1.1,0.3 1.8,0.5 2.6,1.2 0.4,0.4 1.2,1 1.7,1.1 0.5,0.1 0.9,-0.7 1.5,-0.3 1.2,0.7 1.8,1.1 3.2,1.4 1.1,0.3 1.4,0.1 2,1.2 1,1.8 1.8,1.2 3.7,1.2 1.4,0 2.5,1.4 3.9,1.4 l 3.1,-0.2 v 0 l 2,1.4 c 0.9,0.7 2,0.8 3,1.3 0.6,0.3 0.6,1 0.8,1.6 0.1,0.4 0.1,0.9 0.2,1.3 0.2,0.4 0.5,1.1 0.6,1.5 0.4,1.1 1.8,3.4 2.7,3.9 0.4,0.2 1.3,0.3 1.6,0.6 0.6,0.7 0.3,1.5 1.2,2.3 0.5,0.5 1.1,1.2 1.7,1.5 0.5,0.3 1,0.4 1.6,0.6 0.4,0.1 0.8,0.4 1.3,0.7 v 0 l -3.9,2.4 c -1.6,0.9 -3.4,1.9 -4.3,3.4 -1,1.6 -2,-0.9 -3,-0.3 -1.5,0.8 -0.8,4.8 -1.1,6.2 -0.4,2.3 -1.4,4.4 -2,6.6 0.1,0.9 1.1,0.8 1.1,1.7 0,2.1 -0.1,2.4 -1.1,4.3 l -1.6,3.1 c -0.3,0.6 -0.5,1.4 -0.6,2.1 -0.2,1.1 -1.2,1.9 -1.5,3.1 -0.4,1.4 -0.5,2.5 -0.6,3.9 0.2,2.1 2.4,5.6 1.7,7.3 -0.4,0.9 -1.4,1.9 -2.4,1.1 -2.3,-1.9 -2,0.7 -4.6,-0.5 -0.9,-0.4 -3,-0.8 -1.8,0.7 1.3,1.5 2.5,4.2 1.7,6.2 -0.3,0.9 0.6,1.6 0.3,2.6 -0.5,1.8 0.2,1 0.8,2.3 0.7,0.8 0.8,2.1 0.7,3.1 0,0.7 -0.1,1.7 -1.1,1.7 -1.7,-0.1 -1.4,0.7 -2.8,1.3 -1.2,0.6 -1.4,-1.3 -2.4,-1.3 -0.5,1.4 -2.3,1.9 -3.8,2 -2.8,0.1 -0.7,2.5 -2.7,3.6 -1.6,0.6 -2.9,0.6 -4.6,0.9 -1.3,0.2 -4.3,3.8 -5.8,4.7 -2.1,1.3 -1.7,2 -3.1,3.7 -1.4,1.8 -4.8,4.3 -6.8,5.6 -2.6,1.7 0.1,4 0.1,6.1 -0.1,1.1 0.2,1.7 -0.9,2.3 -0.7,0.4 -1,-0.2 -1.3,0.8 -0.2,0.7 0.2,2.7 0.4,3.4 0.4,1.2 -1.7,3.2 -1.7,4.7 l -0.1,6.7 c 0.4,1.8 1.2,3.2 1.2,5.2 -0.4,0.1 -2.3,-0.5 -3.1,-0.4 -2.5,0.1 -3.2,-2.1 -4.9,-2.2 -0.5,0 -1.2,-0.7 -1.5,-0.6 -0.9,0.4 -2.7,2.2 -3.7,0.9 -0.6,-0.8 -1.7,-2.1 -2,-3.1 -0.7,-2.1 0,-2.1 -2.3,-2.6 -1.6,-0.3 -2.5,-1.8 -4.5,-1.8 -1,0.2 -2.1,-0.7 -2.7,0.6 -0.3,0.6 -0.4,1.9 -0.6,2.6 -0.4,1.4 -1.9,2.5 -1.9,4.2 0,1.4 -0.1,2.3 -0.4,3.7 -0.2,0.7 -0.2,1.9 -0.2,2.6 0,0.5 -1,3.1 -1.3,3.6 -0.6,0.8 -2.5,1.2 -3.3,1.9 -0.2,0 -1,0.1 -1.1,0.3 -0.3,0.1 -0.5,2.3 -0.7,2.7 -0.7,1.7 -1.3,2.9 -1.7,4.7 -0.3,1.4 -0.2,1.9 -1.8,2.3 -1.9,0.5 -3.7,1 -5.2,-0.5 l -1.8,-1.8 c -0.2,-0.2 -1.7,-0.5 -1.7,-0.2 l 0.4,1.2 1.2,5.7 c 0.3,1.5 1.2,4.1 1.2,5.6 0.3,1.6 1.2,2.5 2.2,3.6 0.9,1 2.9,4.3 1.6,5.6 -1.4,1.4 -0.6,3.1 -3.4,3.1 -4.4,0 -2.3,4.9 -3.5,5.2 -1.1,0.2 -1.4,1.6 -2.3,1.9 -1.1,0.3 -2.1,-0.7 -2.1,0.9 0.1,3.7 9.9,8.9 2.4,12.5 -1.5,0.7 -2.3,-0.2 -3.6,1.2 -1.6,1.7 -4,2.3 -5.7,3.6 -0.4,0.3 -2.1,1.1 -2.2,1.5 -0.1,0.2 0.4,2.4 0.4,3 l 0.7,4.8 v 0 c -0.2,0.1 -0.5,0.2 -0.6,0.3 -1,0.9 -0.7,1 -1.8,0.4 -1.1,-0.7 -2,0.7 -3,0.1 -0.6,-0.3 -0.9,-0.4 -1.6,-0.5 -2.2,-0.1 -3,1 -4.9,-0.4 -2.3,-0.6 -3.3,-0.6 -5.6,0.1 -1.3,0.4 -3.8,2.2 -5.2,1.8 -4,-1.2 -4.6,2 -7.3,4.2 -0.3,0.2 -1.9,0.1 -2.4,0.3 -1.7,0.1 -3.3,2.3 -4.6,2.4 l -4,0.1 c -3.3,0.1 -5,-1.7 -7.1,-3.8 -0.8,-0.8 -3.3,-0.5 -4.3,-0.2 -1.4,0.5 -2.6,-0.2 -3.5,0.1 -0.7,-0.2 -4.4,-3.5 -4.6,-4.1 -1.9,0 -3.8,1 -5.6,0 -1.6,-0.9 -2.5,1.5 -3.3,2.6 -1,0 -1.9,0.3 -2.6,-0.5 -0.7,-0.8 -2.2,-0.1 -2.9,0.4 -0.7,0.7 -0.8,0.8 -1.1,1.6 -0.2,0 -0.6,-0.1 -0.8,-0.2 0,-1 -0.3,-1.5 -1,-2.1 -1.3,-1.1 -1.8,0.1 -2.6,0.7 -0.5,0.4 -1.3,-0.7 -1.6,-0.7 v 0 c 0,-0.7 0.5,-2.4 0.5,-3.1 0,-0.6 0,-1.6 -0.3,-2.1 0,-1.7 1.6,-3 1.2,-4.7 -0.3,-1.6 -2,-2.2 -2.1,-4 -0.1,-1.6 -0.9,-1.6 -2,-2.4 -1.1,-0.7 -2.2,-2.8 -3.4,-3.2 -2.1,-0.7 -4.3,1 -6.1,0.2 -1,-0.5 -0.9,-2 -2.6,-2.3 -1.6,-0.3 -2.7,0.2 -3.3,-1.3 -1.5,-2.9 -7.6,-1.3 -10.1,-2.3 -1.2,-0.5 -2.1,-1.4 -3.2,-1.8 -1.7,-0.7 -2.4,0.5 -3.2,-2 -0.3,-1.1 -0.6,-0.4 -1.5,-0.8 -0.9,-0.4 -1.5,-1 -2.4,-1.4 -1.1,-1.1 -1.5,-1.3 -1.9,-2.8 -0.3,-1 -1.2,-0.3 -2.2,-0.2 -3.3,0.2 -5,-0.4 -7.1,-2.8 -1.4,-1.6 -3.1,-2.5 -4.9,-3.6 -2.3,-1.4 -1,-3.8 -4.2,-5.1 -1.6,0 -2.1,1.1 -3.2,1.1 l -0.8,-4.9 c -0.4,-2.4 -1.1,-4.8 -1.1,-7.2 0,-1.5 0.3,-3.8 -0.5,-5.1 -0.9,-1.5 -2.6,-3.1 -3,-4.8 z"
     id="path10"
     inkscape:connector-curvature="0"
     style="clip-rule:evenodd;display:inline;fill:none;fill-rule:evenodd;stroke:#ffffff;stroke-width:2;stroke-miterlimit:3.86400008"
     inkscape:label="map-gr" /><path
     class="st0"
     d="m 559.44164,319.34149 c 1.2,-0.3 3.1,0.2 4,0.3 l 6.8,0.3 c 1.9,0 2.1,-0.2 3.5,0.8 0.4,0.3 1.8,0 2.3,-0.1 1.8,-0.3 1.9,1.2 3.8,0.1 3,-1.6 5.6,-2.6 8.3,0.1 l 2.5,2.5 c 1,1 1.3,2.3 2.2,3.4 0.4,0.3 1.3,1.6 1.8,1.6 1.3,-0.1 2.6,-2.1 4.2,-2.4 2.4,-0.4 4.3,3.2 6.3,3.9 1.5,0.5 2.9,0.1 4.4,0.1 1.4,0 3.4,0.4 4.6,-0.2 1.5,-1.2 2.9,-1.6 4.7,-1.7 1.8,-0.1 4.6,-3.8 5.7,-5.2 0.8,-1 1.3,-2.3 1.4,-3.5 0.1,-1.6 0.9,-3 1.1,-4.5 0.7,-1.7 2.4,-3.8 3.8,-4.9 1.3,-1 2.6,-1 4.1,-1.3 1.2,-0.3 2.2,-1 3.6,-1.1 0.8,-0.1 1.7,-0.1 2.4,-0.5 2.8,-1.8 3.5,-0.8 5.5,1.6 0.8,0.3 1.5,1.6 1.8,1.6 2.8,-2.3 6.5,-5.9 10.5,-4.7 4.8,1.4 7.8,3.1 11.3,6.6 1.4,1.5 3.3,4.6 4.1,6.5 0.6,1.4 2.5,2.9 3.4,4.2 0.8,1.1 1.5,1.6 2.9,1.4 0.8,-0.1 2.6,-1.3 3.1,-1.2 1.1,0.4 3.1,-0.9 4.3,-1.3 0.2,-0.1 -0.5,-1.1 -0.2,-1.7 0.3,-0.6 0.8,-0.4 1.2,-0.6 0,-3.2 2.9,-0.8 4.7,-3.4 0.7,-0.8 2.1,-0.5 1.6,-2.1 -0.4,-1.4 0.3,-3.7 1.2,-4.5 1.1,-1 2.2,-2.8 3.6,-3.4 0.8,-0.3 2.2,0.7 2.6,-0.4 0.8,-1.8 -0.1,-2.3 -0.6,-3.7 -0.1,-0.5 0.4,-1.2 0.4,-1.8 0,-1.3 0.4,-1 1.2,-2 0.3,-1 1,-1.7 1.5,-2.6 0.1,0 0.1,0 0.1,-0.1 0.2,0 0.4,-0.2 0.6,-0.1 0,0.5 0.2,0.5 0.3,0.7 h 0.1 c 0.4,0.1 0.6,0.1 0.9,0 0.2,-1.3 1.8,-4.2 2.5,-5.3 0.5,-0.8 2,-1.5 2.9,-1 1.3,0.8 3.4,-0.3 3.4,-2 0,-1.4 -0.8,-5.3 -0.2,-6.3 0.2,-1.1 1.4,-0.7 1.4,-1.6 0,-0.4 0.1,-1.3 0.6,-1.5 0.9,-0.3 0.6,-0.2 0.4,-0.9 -0.4,-1.1 0.2,-2.6 0.9,-3.3 0.7,-0.7 1.1,-0.6 1.5,-1.6 0.4,-1.1 1.1,-2.2 1.4,-3.3 0.4,-1.2 0.2,-2.9 0.2,-4.2 -0.2,-1.3 0.8,-3.1 1.7,-4 1.3,-1.3 1.6,-4.8 1.6,-6.6 0,-3.1 0.7,-5.1 1.9,-7.9 0.2,-0.9 1.3,-4.2 2.5,-4.2 1.6,0 1.4,-0.4 2.3,-2 2.5,-4.6 8.4,-7.6 9.4,-12.9 0.6,-1.4 1.9,-3.5 3.2,-4.3 0.4,-0.2 1.2,-0.6 1.5,-0.1 0.3,0.6 0.5,0.5 1.1,0.3 v 0 c 0,-0.5 1.1,-3.5 1.9,-3.4 v 0 c -0.3,-0.6 -1.7,-2.2 -2.3,-2.7 -0.8,-0.7 -1.8,-1.7 -2.7,-2.3 -0.8,-0.5 -1.6,-0.9 -2.4,-1.3 -2.6,-1.5 -4.5,-3.6 -7.4,-4.7 -1.5,0 -3.6,0.3 -5,-0.4 -1.3,-0.6 -3.1,-1.9 -2.9,0.4 l 0.1,1.3 v 0.1 c -0.9,0 -4.6,-3.6 -4.7,-4.5 -0.6,-2.8 -2.9,-3.8 -3.9,-6.3 -1.4,-2.2 -3.3,-4.3 -4.7,-6.5 l -3.9,-6.3 c -0.8,-1.1 -1.1,-2.2 -1.5,-3.5 -0.4,-1.4 -1,-1.1 -1.8,-2 -0.5,-0.5 -0.9,-1.8 -1.1,-2.5 -0.4,-1.4 -0.3,-1.3 -1.5,-2.1 -0.6,-0.4 -0.7,-0.8 -1,-1.5 -0.6,-1.3 -1.3,-3.2 -1.3,-4.6 0,-1.6 -0.3,-3.2 0.3,-4.7 0.5,-1.2 1.5,-2 1.3,-3.1 -0.1,-0.8 -0.5,-1.7 -0.5,-2.6 -0.1,-1.4 -0.6,-2.8 -0.3,-4.3 0.4,-1.9 0.3,-3.5 0.3,-5.4 0,-2.6 0.9,-5.6 2.7,-7.5 0.3,-0.3 1.3,-1.2 1.3,-1.6 0,-0.6 -1,-1.1 -1.5,-1.4 -1,-0.7 -2.3,-1.4 -3.2,-0.4 -1.8,2.1 -2.5,1.1 -4.5,0.1 -0.9,-0.5 -3.3,-2.7 -4.1,-0.8 -0.9,2.1 -1.4,1.3 -3.1,0.4 -1.2,-0.7 -0.8,-1.1 -1.4,-2 -0.5,-0.8 -1.8,-1.5 -2.7,-1.3 -0.9,0.2 -4.6,1.6 -5.1,1.2 -0.7,-0.5 -1.4,-1.6 -2,-2.3 -0.7,-0.6 -2,-1.7 -3,-2.5 v 0 l -3.9,2.4 c -1.6,0.9 -3.4,1.9 -4.3,3.4 -1,1.6 -2,-0.9 -3,-0.3 -1.5,0.8 -0.8,4.8 -1.1,6.2 -0.4,2.3 -1.4,4.4 -2,6.6 0.1,0.9 1.1,0.8 1.1,1.7 0,2.1 -0.1,2.4 -1.1,4.3 l -1.6,3.1 c -0.3,0.6 -0.5,1.4 -0.6,2.1 -0.2,1.1 -1.2,1.9 -1.5,3.1 -0.4,1.4 -0.5,2.5 -0.6,3.9 0.2,2.1 2.4,5.6 1.7,7.3 -0.4,0.9 -1.4,1.9 -2.4,1.1 -2.3,-1.9 -2,0.7 -4.6,-0.5 -0.9,-0.4 -3,-0.8 -1.8,0.7 1.3,1.5 2.5,4.2 1.7,6.2 -0.3,0.9 0.6,1.6 0.3,2.6 -0.5,1.8 0.2,1 0.8,2.3 0.7,0.8 0.8,2.1 0.7,3.1 0,0.7 -0.1,1.7 -1.1,1.7 -1.7,-0.1 -1.4,0.7 -2.8,1.3 -1.2,0.6 -1.4,-1.3 -2.4,-1.3 -0.5,1.4 -2.3,1.9 -3.8,2 -2.8,0.1 -0.7,2.5 -2.7,3.6 -1.6,0.6 -2.9,0.6 -4.6,0.9 -1.3,0.2 -4.3,3.8 -5.8,4.7 -2.1,1.3 -1.7,2 -3.1,3.7 -1.4,1.8 -4.8,4.3 -6.8,5.6 -2.6,1.7 0.1,4 0.1,6.1 -0.1,1.1 0.2,1.7 -0.9,2.3 -0.7,0.4 -1,-0.2 -1.3,0.8 -0.2,0.7 0.2,2.7 0.4,3.4 0.4,1.2 -1.7,3.2 -1.7,4.7 l -0.1,6.7 c 0.4,1.8 1.2,3.2 1.2,5.2 -0.4,0.1 -2.3,-0.5 -3.1,-0.4 -2.5,0.1 -3.2,-2.1 -4.9,-2.2 -0.5,0 -1.2,-0.7 -1.5,-0.6 -0.9,0.4 -2.7,2.2 -3.7,0.9 -0.6,-0.8 -1.7,-2.1 -2,-3.1 -0.7,-2.1 0,-2.1 -2.3,-2.6 -1.6,-0.3 -2.5,-1.8 -4.5,-1.8 -1,0.2 -2.1,-0.7 -2.7,0.6 -0.3,0.6 -0.4,1.9 -0.6,2.6 -0.4,1.4 -1.9,2.5 -1.9,4.2 0,1.4 -0.1,2.3 -0.4,3.7 -0.2,0.7 -0.2,1.9 -0.2,2.6 0,0.5 -1,3.1 -1.3,3.6 -0.6,0.8 -2.5,1.2 -3.3,1.9 -0.2,0 -1,0.1 -1.1,0.3 -0.3,0.1 -0.5,2.3 -0.7,2.7 -0.7,1.7 -1.3,2.9 -1.7,4.7 -0.3,1.4 -0.2,1.9 -1.8,2.3 -1.9,0.5 -3.7,1 -5.2,-0.5 l -1.8,-1.8 c -0.2,-0.2 -1.7,-0.5 -1.7,-0.2 l 0.4,1.2 1.2,5.7 c 0.3,1.5 1.2,4.1 1.2,5.6 0.3,1.6 1.2,2.5 2.2,3.6 0.9,1 2.9,4.3 1.6,5.6 -1.4,1.4 -0.6,3.1 -3.4,3.1 -4.4,0 -2.3,4.9 -3.5,5.2 -1.1,0.2 -1.4,1.6 -2.3,1.9 -1.1,0.3 -2.1,-0.7 -2.1,0.9 0.1,3.7 9.9,8.9 2.4,12.5 -1.5,0.7 -2.3,-0.2 -3.6,1.2 -1.6,1.7 -4,2.3 -5.7,3.6 -0.4,0.3 -2.1,1.1 -2.2,1.5 -0.1,0.2 0.4,2.4 0.4,3 z"
     id="path12"
     inkscape:connector-curvature="0"
     style="clip-rule:evenodd;display:inline;fill:none;fill-rule:evenodd;stroke:#ffffff;stroke-width:2;stroke-miterlimit:3.86400008"
     inkscape:label="map-al" /><path
     class="st0"
     d="m 304.14164,279.14149 1.5,-1.9 c 0.4,-0.4 0.5,-1.9 1.3,-1.6 0.8,0.2 0.8,0.5 1.8,0.2 0.8,-0.2 1.4,-0.8 2.2,-1 l 3.8,-0.6 c 1.4,-0.2 3.2,-2.3 4.6,-3 1.9,-1 4.5,-1 5.8,-2.9 1.5,-1 2.4,-2.7 4,-3.7 1,-0.6 2,-0.7 3,-1.2 1.4,-0.7 2.7,-3.4 2.4,-5 -0.2,-1.3 -3.4,-2.6 -4.4,-3.4 -0.8,-1.1 -1.1,-2.5 0.6,-2.9 0.8,-0.2 4,-0.8 4.1,-0.3 0.1,1.5 -0.2,2.8 1.7,3 0.4,0.1 2.5,-0.5 2.9,-0.7 2.1,-1.3 -0.1,-5.2 1.9,-5.9 0.9,-0.3 2.7,-0.1 3.6,0.1 0.5,0.1 -0.7,2.1 -0.1,2.8 1,1.3 3.3,0.1 3,2.3 -0.4,2.5 1.8,2.2 2.5,0.3 0.6,-0.5 2,-0.9 2.1,-1.5 0.2,-1.9 5.7,-1.4 6.3,-3.9 0.4,-1.8 -3.3,-2.8 -1.9,-4.9 1.6,-2.4 -1.2,-1 -0.4,-2.7 1.5,-3 2.6,-0.8 5.4,-0.8 1.5,0 3.3,-0.9 4.6,-1.4 v 0 c 0.4,0.7 0.9,1.4 1.6,1.4 0.7,0 1.4,-0.6 2.2,-1.3 l 1,1.3 c 0.2,0.4 0.1,1 0.4,1.2 0.6,0.5 1.2,0.9 1.4,1.7 0.3,1 -0.6,2.8 0.5,3.3 0.8,0.3 2.6,0.7 3.2,0.1 1.8,-2 3.4,0.3 5.2,-0.9 0.9,-0.6 1.7,-0.5 2.7,-0.8 1.1,-0.3 1.3,-0.9 2,-1.7 l 0.8,-1.1 c 0.1,0 0.2,-0.1 0.2,-0.2 0.4,-0.5 -0.8,-1.9 0.4,-2.3 0.3,-0.1 0.6,0.5 0.8,0.7 0.3,0.3 0.8,-0.7 1,-0.9 0.7,-1.1 1.1,-3.5 2.9,-3.2 0.6,0.1 1.4,0.4 1.9,-0.1 0.5,-0.5 1,-0.4 1.6,-0.3 0.7,0.1 1.4,0.2 2.2,0.3 l 2.3,0.2 0.2,3 c -0.1,0.5 0.3,1 -0.1,1.5 -0.9,1.1 0.5,4.2 1.5,4.9 0.6,0.5 2.2,0.5 3,0.6 0.7,0.1 1.3,0.6 1.9,0.8 0,0.5 -0.2,0.9 -0.2,1.4 0,0.7 0.3,1.1 0.4,1.7 v 0 l 2.4,5.3 c 0.4,1.7 2.1,3.3 3,4.8 0.8,1.3 0.5,3.6 0.5,5.1 0,2.5 0.7,4.8 1.1,7.2 l 0.8,4.9 c 1.1,0 1.6,-1.1 3.2,-1.1 3.2,1.2 1.9,3.7 4.2,5.1 1.8,1.1 3.5,2 4.9,3.6 2.2,2.4 3.9,3 7.1,2.8 1,-0.1 1.9,-0.8 2.2,0.2 0.5,1.4 0.9,1.7 1.9,2.8 0.9,0.4 1.6,1 2.4,1.4 0.9,0.4 1.1,-0.3 1.5,0.8 0.8,2.5 1.5,1.4 3.2,2 1.1,0.4 2,1.3 3.2,1.8 2.5,1 8.7,-0.6 10.1,2.3 0.6,1.6 1.8,1.1 3.3,1.3 1.7,0.3 1.5,1.8 2.6,2.3 1.8,0.8 4,-0.9 6.1,-0.2 1.2,0.4 2.3,2.4 3.4,3.2 1.2,0.8 2,0.8 2,2.4 0.1,1.8 1.8,2.5 2.1,4 0.3,1.7 -1.2,3 -1.2,4.7 0.3,0.5 0.3,1.5 0.3,2.1 0,0.7 -0.5,2.4 -0.5,3.1 v 0 c -0.8,-3.4 -10.3,-3.3 -12.6,-1.7 -1.4,0.9 -3.2,-0.3 -5,0.4 -1.6,0.7 -4.1,2.4 -5.8,2.6 -0.7,-2 -5.3,-2.2 -7,-3 -2.5,-1.1 -6.4,-0.1 -8.9,0.4 -1.8,0.9 -1.2,2.4 -3.5,2.7 -2.1,0.3 -4.5,0.3 -6.5,0.9 -4.5,1.4 -9.7,0.1 -14.1,1.2 -3.5,0 -6.7,0.1 -10.1,-1 -2.7,-0.9 -5.8,-1.6 -7.7,1 -0.1,0 -0.2,0.1 -0.3,0.1 -0.2,0.2 -0.5,0.3 -0.7,0.4 -1.7,1.7 -2.5,4.2 -3.7,6.2 -1.1,2 -2.9,3.8 -4.1,5.7 -0.6,1 -2,2.8 -2.2,3.9 -0.8,2.5 -1.3,1.3 -2.7,2.6 -1.7,1.6 -1.5,1.3 -3.6,1.7 -3.4,0.8 -6.3,1.6 -7.7,5.3 -0.4,1 -2,5.5 -2.7,6.1 -0.9,0.7 -1.8,0.3 -2.9,0.5 -2.8,0 -3.8,2.2 -6.4,2.6 -2.2,0.4 -4.8,1 -6.9,0.3 -1.2,-0.4 -3,-1.3 -4.2,-1.3 -3.3,-0.6 -6.3,-1.8 -9.7,-1.8 -1.6,0 -8,-0.2 -8.6,1.7 0,0 0,0 -0.1,0 l -0.1,0.3 c -1.3,2.2 -1.9,1.2 -3.9,2.2 -0.9,0.5 -4,3.5 -4.7,3.3 -0.9,-0.3 -1,-0.8 -2.3,-0.6 -1.7,0.3 -3,2.5 -4.9,2 -0.8,-0.2 -1.3,-0.5 -2.1,0.2 -0.9,0.7 -2.1,1.8 -3,2.2 -1.5,0.9 -2.6,0.7 -3.9,1.3 -0.8,0.4 -2.3,2.1 -3.1,2 0,0 -0.2,-0.2 -0.2,-0.2 -0.2,-0.6 -0.2,-0.6 -0.8,-0.6 -0.3,0.6 -1.9,1.6 -2.5,2.3 -1.1,1.3 -2.1,2.4 -2.9,3.8 -1.2,1.9 -3.9,7 -3.9,9.2 -0.1,0.3 -0.2,1.6 -0.4,1.7 v 0 c -0.8,-1 -1.9,-2.3 -2.8,-3.1 -0.9,-0.8 -1.3,-1.7 -2.7,-1.5 -1.1,0.2 -2,1.6 -2.8,1.5 -1.1,-0.2 -0.9,-1.8 -0.7,-2.6 0.1,-0.5 -0.4,-0.8 -0.7,-1.1 -0.9,-1.9 -0.9,-3 -1.3,-5 -0.3,-1.4 -0.7,-4.3 -1.8,-5.4 -0.9,-0.9 -0.8,-1.9 -1.2,-3 -0.5,-1.2 -1.9,-2.5 -3,-3.3 -0.1,-0.6 -1.3,-1.4 -1.6,-2.1 -0.3,-0.8 -0.5,-1.5 -0.7,-2.2 -0.4,-1.6 -1.4,-2.9 -1.7,-4.7 -0.3,-1.6 -0.8,-1.1 -1.7,-2.1 -0.5,-0.6 -0.1,-0.8 -1.1,-1.1 -0.9,-0.3 -1.3,0 -2.2,-0.1 -0.4,0.2 -1.6,1.6 -1.7,1.4 l -0.8,-1.5 c -2.9,0 -4.3,3.8 -6.1,5.2 -0.6,0.4 -1.7,-0.5 -2.3,-0.5 -1.5,-0.1 -2,0.5 -3.4,-0.6 -1.9,-1.5 -3,0.6 -4.8,-0.2 -0.1,-1 -1,-4.5 -0.8,-5.2 0.6,-1.8 3.2,-1.1 4.5,-0.4 1.4,0.8 1.6,0.6 3.1,0.9 1.5,0.8 2.4,3.7 4.2,1.3 1.2,-1.5 2.5,-2.9 3.3,-4.7 0.7,-1.5 1.8,-1.6 2.9,-2.8 1.2,-1.3 2.1,-4.3 2.1,-6.1 2.7,2 9.7,-1.6 11.5,-4 0.9,-0.6 1.8,-2.2 2.7,-2.9 0.9,-0.8 1.8,-1.3 1.5,-2.6 -0.2,-0.9 0.8,-1.5 0.8,-2.2 -0.2,0 -0.5,-0.2 -0.8,-0.2 -0.2,-0.8 0.6,-4.7 1.1,-5.3 1.2,-1.7 1.7,-3.2 2.6,-5 0.8,-1.5 0.6,-1.5 -0.3,-2.7 -0.2,-0.7 -1.8,-1.2 -2.2,-2 -0.5,-0.8 -0.4,-1.5 -0.7,-2.3 -0.7,-2.4 -2.2,-0.9 -1.1,-4.1 0.4,-1.3 1.2,-2.5 2,-3.5 0.4,-0.5 1,-0.3 1.5,-0.6 0.5,-0.3 0.3,-1.4 0.8,-2 0.5,-0.6 1.9,-0.9 2.7,-1.2 1.9,-0.7 0.7,-0.7 2,0.3 1.1,0.8 1.5,1.4 2.9,2 2.1,0.8 1.6,0.4 2.3,2.7 0.6,2 3,0.9 4.1,2.3 3.2,3.2 3,0.4 5.8,-0.3 2.5,-0.6 3.1,-4.2 4,-6.3 0.5,-1.2 0.6,-3.1 1.5,-4 0.6,-0.6 2,0 1.8,-0.8 l -1.6,-6.4 c 0,-0.9 -1.2,-1.9 -0.9,-2.6 0.2,-0.4 1.6,-1.1 1.6,-1.4 -0.4,-0.1 -1.1,-0.6 -1.5,-0.9 -0.6,-0.4 -0.4,-0.7 -0.5,-1.2 -0.9,-0.7 -3.5,-2.3 -4.5,-3 z"
     id="path14"
     inkscape:connector-curvature="0"
     style="clip-rule:evenodd;display:inline;fill:none;fill-rule:evenodd;stroke:#ffffff;stroke-width:2;stroke-miterlimit:3.86400008"
     inkscape:label="map-ma" /><path
     class="st0"
     d="m 154.44164,295.24149 c -2.1,0.8 -3.6,2.1 -4,5.5 -0.2,1.9 -0.2,3.8 0.6,5.6 0.5,1.3 1.5,2.8 1,4.3 -0.2,0.4 -0.3,0.8 -0.4,1.2 v 0 c 0,0.9 -3.9,3.2 -4.7,3.9 -0.8,0.6 -2.2,2.1 -3.2,2.1 -1.4,0 -0.5,-0.3 -1.1,1.1 -0.9,1.8 -1.7,0.4 -2.4,1.1 -1.5,1.5 -1.1,0.4 -1.1,2.5 -0.3,4.5 4.4,8.7 5.6,12.9 0.4,1.2 -0.1,1.9 0.8,3 0.5,0.7 3.3,2.3 4.2,2.6 0,0 0.9,-1.3 1.6,-1.6 1.2,-0.5 0.6,0.9 1.2,0.9 0,-1.8 5.2,0.7 5.9,1.5 1.1,0.1 1.9,3 2.3,4 1.1,2.5 1.9,0.1 3.3,0.1 2.6,0 2.4,5.6 1.5,7.1 -0.5,0.8 -1.1,1.5 -2,1.5 -2.6,0 0.2,3.1 0.7,3.1 2.4,0 6,-4.1 8.6,-1.5 1.2,1.2 -0.2,2.2 -1.1,3.1 -0.6,0.6 -1.3,0.8 -2.1,1.1 -0.9,0.3 -1.3,1.2 -2,1.6 -0.8,1.3 -3.1,2.5 -4.6,2 -1,-0.3 -1.9,-2.3 -1.6,-3.3 0.3,-1 1,-1.1 0.5,-2.2 -0.4,-1 -1.8,-2 -2.4,-3 -0.2,-0.4 0.4,-0.9 0.4,-1.4 0,-0.1 -1.2,-0.2 -1.5,-0.3 v -0.1 c 0.2,0 0.7,-1.1 0.3,-1.2 0,0 -1.1,1 -1.7,1 -0.5,0 -1.4,0.8 -1.4,1.3 3.1,0 3.6,3.8 4.8,6 0.8,1.3 0.9,2.8 1.6,4.1 l 3,5.3 c 0.7,1.5 1.8,3.8 2.1,5.4 0.6,3.3 4,3.4 5.4,6 1.3,2.4 1.5,5.7 2.8,7.9 0.4,0.6 0.9,2 1.6,2.1 1.4,0.3 2.7,0.2 3.8,1.1 1.7,1.4 2.9,4.1 3.5,6.1 0.7,2.2 2.3,4.3 3.3,6.5 0.8,1.2 2.7,3.3 3,4.6 0.4,-0.1 0.4,-0.9 1.2,-0.9 2.9,0 4.1,2.3 7.4,0.8 1.1,-0.5 2.7,-1.1 4,-1.1 1.6,0 2,0.6 3.2,1.3 1.4,1 3.1,2 4.3,3.1 1.6,1.4 3.3,3.4 4.5,5.2 0.9,1.2 2.5,5.1 3.9,5.6 0.6,0.6 1.4,2.4 2.2,1.7 0.8,-0.6 0.1,-1.9 1.8,-1.4 1.7,0.5 2.4,2.8 4.3,3.3 1.4,0.3 2.5,1.5 4,1.5 0.9,0 1.9,-1.6 2.4,-1.4 1.4,0.5 1.8,1.5 3.4,1.4 1.7,-0.1 2,1.5 3.1,2.2 1.1,0.6 3.4,3.4 3.4,4.7 l 0.6,2 c 0.1,0 0.1,-0.1 0.2,-0.1 0.4,-1.3 1.9,-1.4 3.1,-1.6 2.1,-0.3 5.1,-2.4 7,-3.5 1.4,-0.8 5.3,-3.2 6.7,-2.8 1.5,0.3 2.3,0.6 3.4,-0.6 0.5,-0.5 4.2,-3.5 3,-4 -1.5,-0.6 -2.1,-1 -1.8,-2.7 0.1,-0.8 1.2,-1.2 0.9,-1.9 -0.2,-0.4 -1.1,-1 -0.9,-1.5 0.1,-0.2 0.8,-1 0.6,-1.1 -1,-0.3 -0.3,-0.7 -0.3,-1.5 v -2 c -0.1,0 -0.6,0.5 -0.8,0.4 -0.4,-0.2 0,-1.3 0.1,-1.6 0,-1.7 2.9,-3.3 4.3,-3.6 1,-0.2 3.5,-0.5 3.2,0.9 -0.3,1.3 1.5,0.8 2.6,1.6 0.5,0.4 0.9,0.9 0.8,1.4 v 0 l 2.6,-0.1 v 0 c 0,-1.2 0.1,-2.9 0.4,-4.1 0.5,-1.5 0.4,-3.5 1.1,-4.9 0.6,-1.6 1.4,-4.1 2.9,-4.8 1.8,-0.9 2.6,-5.4 3.5,-7.3 0.4,-1 1.2,-2.5 2.2,-3 0.4,-0.2 0.8,-0.1 1.1,-0.3 v 0 c -0.8,-1 -1.9,-2.3 -2.8,-3.1 -0.9,-0.8 -1.3,-1.7 -2.7,-1.5 -1.1,0.2 -2,1.6 -2.8,1.5 -1.1,-0.2 -0.9,-1.8 -0.7,-2.6 0.1,-0.5 -0.4,-0.8 -0.7,-1.1 -0.9,-1.9 -0.9,-3 -1.3,-5 -0.3,-1.4 -0.7,-4.3 -1.8,-5.4 -0.9,-0.9 -0.8,-1.9 -1.2,-3 -0.5,-1.2 -1.9,-2.5 -3,-3.3 -0.1,-0.6 -1.3,-1.4 -1.6,-2.1 -0.3,-0.8 -0.5,-1.5 -0.7,-2.2 -0.4,-1.6 -1.4,-2.9 -1.7,-4.7 -0.3,-1.6 -0.8,-1.1 -1.7,-2.1 -0.5,-0.6 -0.1,-0.8 -1.1,-1.1 -0.9,-0.3 -1.3,0 -2.2,-0.1 -0.4,0.2 -1.6,1.6 -1.7,1.4 l -0.8,-1.5 c -2.9,0 -4.3,3.8 -6.1,5.2 -0.6,0.4 -1.7,-0.5 -2.3,-0.5 -1.5,-0.1 -2,0.5 -3.4,-0.6 -1.9,-1.5 -3,0.6 -4.8,-0.2 -0.1,-1 -1,-4.5 -0.8,-5.2 0.6,-1.8 3.2,-1.1 4.5,-0.4 1.4,0.8 1.6,0.6 3.1,0.9 1.5,0.8 2.4,3.7 4.2,1.3 1.2,-1.5 2.5,-2.9 3.3,-4.7 0.7,-1.5 1.8,-1.6 2.9,-2.8 1.2,-1.3 2.1,-4.3 2.1,-6.1 2.7,2 9.7,-1.6 11.5,-4 0.9,-0.6 1.8,-2.2 2.7,-2.9 0.9,-0.8 1.8,-1.3 1.5,-2.6 -0.2,-0.9 0.8,-1.5 0.8,-2.2 -0.2,0 -0.5,-0.2 -0.8,-0.2 -0.2,-0.8 0.6,-4.7 1.1,-5.3 1.2,-1.7 1.7,-3.2 2.6,-5 0.8,-1.5 0.6,-1.5 -0.3,-2.7 -0.2,-0.7 -1.8,-1.2 -2.2,-2 -0.5,-0.8 -0.4,-1.5 -0.7,-2.3 -0.7,-2.4 -2.2,-0.9 -1.1,-4.1 0.4,-1.3 1.2,-2.5 2,-3.5 0.4,-0.5 1,-0.3 1.5,-0.6 0.5,-0.3 0.3,-1.4 0.8,-2 0.5,-0.6 1.9,-0.9 2.7,-1.2 1.9,-0.7 0.7,-0.7 2,0.3 1.1,0.8 1.5,1.4 2.9,2 2.1,0.8 1.6,0.4 2.3,2.7 0.6,2 3,0.9 4.1,2.3 3.2,3.2 3,0.4 5.8,-0.3 2.5,-0.6 3.1,-4.2 4,-6.3 0.5,-1.2 0.6,-3.1 1.5,-4 0.6,-0.6 2,0 1.8,-0.8 l -1.6,-6.4 c 0,-0.9 -1.2,-1.9 -0.9,-2.6 0.2,-0.4 1.6,-1.1 1.6,-1.4 -0.4,-0.1 -1.1,-0.6 -1.5,-0.9 -0.6,-0.4 -0.4,-0.7 -0.5,-1.2 -0.3,-1.1 -3,-2.7 -3.9,-3.4 v 0 l -2.7,3.3 c -1.5,1.5 -3.1,2.3 -4.9,3.1 -1.5,0.7 -2.4,3.6 -3.6,3.6 -1.7,0.1 -4.9,-6.8 -5.9,-8.2 -1.8,-2.2 -3.2,-2.9 -3,-5.9 0,-0.2 0.3,-1.5 0.1,-1.6 v 0 c 0,0.8 -3.4,3.3 -4.1,3.8 -0.7,0.5 -0.7,1.5 -1.2,2.2 -0.5,0.6 -2,1.7 -2.7,2.1 -1.9,1.4 -4.3,2.4 -5.7,4.4 -1.6,2.2 -0.1,4.5 -3.9,3.5 l -1.6,-4.5 c -0.7,-1.9 0.9,-3 2.1,-4.2 1.1,-1.1 2,-2.5 1.9,-4.1 -0.1,-1.7 -0.8,-4.3 -1.5,-5.7 -0.8,0 -3.5,1 -4.4,1.4 -1.5,0.7 -4,0.1 -5.4,1.1 0,3 2.4,3.7 4.1,5.7 2.2,2.6 -1.9,4.9 -3.5,6.3 -0.8,0.7 -3.2,4.6 -4,4.5 -0.6,1.3 -1.7,0.9 -0.7,3 0.3,0.7 1.1,2.3 1.1,3 -1.1,0 -5.2,-2.4 -5.8,-3.4 -1,-1.7 -0.5,-5.9 -3.2,-5.1 -0.6,0.2 -0.6,1.2 -1.5,0.8 -0.6,-0.3 -0.7,-1.2 -1.3,-1.6 -0.9,-0.5 -2,0.4 -3,-0.5 -0.9,-0.8 -1.2,-2 -1.9,-2.9 -0.3,-0.4 -2.1,1.6 -2.5,1.9 -1.4,1 -1.2,3.1 -1.8,4.5 -1.3,3.1 -3.4,1.1 -5.3,1.6 -0.9,-0.1 -1.6,-0.6 -2.6,-0.6 -0.8,0 -1.7,0 -2.5,0.1 -1.7,0.2 -3.6,-0.5 -5.1,0.7 -1.2,0.9 -1.5,0.7 -2.8,1 -1,0.2 -2.2,1.8 -3.2,2.4 -0.6,0.3 -0.7,1.2 -1.4,1.6 -0.4,1.1 -1.2,3.3 -1.4,4.5 -0.1,0.9 0.3,2.3 0.2,2.8 -1.3,0 -3.3,-1.2 -4.9,-1.5 -2.7,-0.4 -4.8,1.1 -7.5,1.1 -1.7,0 -3.4,-0.6 -5.1,-0.8 -0.7,0.2 -3.1,-0.9 -4,-1.1 -1.2,-0.3 -2.6,0 -3.9,-0.2 -3.2,-0.4 -4.6,-2.7 -7.1,-4.1 -1.7,-0.9 -3.6,-1.2 -5.1,-2.1 l -4,-0.9 c -0.3,0.3 -0.7,0.6 -1,0.9 -1.5,1.1 -2.7,1.8 -4.5,0.9 -1.4,-0.7 -2.1,-2.6 -4,-2.1 -1.4,0.3 -2.8,0.6 -3.9,1 z"
     id="path16"
     inkscape:connector-curvature="0"
     style="clip-rule:evenodd;display:inline;fill:none;fill-rule:evenodd;stroke:#ffffff;stroke-width:2;stroke-miterlimit:3.86400008"
     inkscape:label="map-ca" /><path
     class="st0"
     d="m 448.54164,215.44149 2.2,1.9 c 1,0.7 2,0.3 3,0.8 1.6,0.8 3.8,1.5 5.7,1 1.6,-0.4 2.5,-1.2 4.2,-1.2 1.2,0 4.4,0.7 5.2,-0.2 1.4,-1.6 2.4,-3.9 3,-6 0.6,-0.8 1.1,-2 1.6,-3 0.4,-0.8 -0.2,-2.3 -0.2,-2.3 1.9,0 1.9,-2.6 2.2,-3.8 0.1,-0.6 0.6,-1.6 1.3,-1.5 0.3,0 0.2,1.6 0.2,1.9 0.7,0.2 5.1,-1.3 6,-1.7 2.2,-1 3.3,-3.3 5.7,-4.4 1.4,0.1 4,-1.3 5.5,-1.7 1.6,-0.4 2.9,-1.3 4.1,-2.4 1.8,-1.8 4.4,-2.6 6.2,-4.4 0.6,-0.6 2.3,-1 2.4,-2 0.1,-1.1 0.1,-1.8 0.6,-2.8 1,-0.1 2.4,-3.7 3.7,-2.7 0.9,0.6 1.4,1.5 2.5,1.9 0.7,0.3 1.7,0 2.4,0.5 2.2,2 2.6,4.9 6.2,4.9 2.4,0.3 2.9,1.3 5.4,0 2.8,-1.4 5.7,-2 8.6,-3 1.7,-0.6 1.2,-2.1 2,-3.3 0.4,-0.5 0.8,-0.8 1.2,-1.2 0.6,-0.5 0.7,-1.1 1.2,-1.6 0.6,-0.6 0.4,-1.9 1.3,-2.1 0.7,-0.1 1.2,0.2 1.8,0.1 2.1,-0.3 6.8,-2.5 8.6,-0.9 2,1.8 3.7,3.4 6,4.8 1.2,0.6 2.3,0.8 3.7,0.5 1.3,-0.3 1.1,0.2 2,0.7 1.5,0.8 3.5,-3.2 5.5,-2.3 1.7,0.7 5.7,3.4 7.2,1.9 0.6,-0.6 -0.6,-1 -0.6,-1.5 0,-0.3 0.7,-1 0.8,-1.4 0.3,-0.6 -0.4,-1.1 0,-1.7 0.5,-0.7 1.7,-1.1 2.5,-1.6 0.8,-0.1 1.9,-1.1 2.6,-1.6 1.2,-0.9 2.7,-1.5 4,-2.3 1.1,-0.6 2,-1.9 0.6,-2.6 -2,-1.2 -0.3,-3.6 -0.6,-5.2 -0.1,-0.8 -0.8,-1.1 -0.8,-2.1 0,-0.4 0.4,-0.9 0.4,-1.4 0.1,-0.6 -0.1,-1.2 -0.1,-1.8 0.5,-2.4 3.2,-1.3 3.2,-2.9 0,-1.6 0.3,-3.1 1.2,-4.4 0.8,-1.1 1.6,-2 2.6,-2.9 0.7,-0.5 0.4,-1.5 0.8,-2.1 0.5,-0.7 2.2,-3.5 2.5,-7.2 0.1,-1.5 1.7,-1.9 1.9,-2.4 0.5,-2.1 1.3,-4 2.6,-5.7 0.9,-1.2 0.9,0.4 1.8,-0.1 1.4,-0.7 2.1,-2.3 3.1,-3.4 1.5,-0.5 3.4,-3.3 5,-4.3 0.9,-0.6 2.2,0.6 3,1 1.5,0.7 5.6,-3.1 7,-4.2 3.3,-2.5 2.3,-4.4 2.5,-8 0.6,-0.7 0.7,-1.8 1.4,-2.6 2.1,-2.3 6.3,-2.3 9.1,-3.2 v 0 c 0,-1.3 1.9,-2.3 2.9,-3.4 1.3,-1.4 1.4,-3.599998 2.9,-4.099998 0.9,-0.4 1.5,-1.8 1.7,-2.8 0.4,-1.2 2.3,-1.8 2.5,-3.4 0.2,-1.6 0.2,-0.8 1.6,-1.7 1.1,-0.7 1.5,-1.9 1.4,-3.2 l -0.4,-1.6 c -2,-1.9 0.9,-2.7 0.9,-4.7 0,-1.5 -0.8,-1.9 0,-3.4 0.3,-0.6 0.5,-1.3 0.7,-1.9 -0.2,-0.8 -0.8,-2.7 -1.7,-3.1 -0.8,-0.3 -1.6,-0.5 -2.4,-0.6 -1.5,-0.2 -2.4,-1.9 -2.1,-3.3 0,-1.3 0.8,-2.7 0.5,-4.1 -0.2,-1.2 -0.6,-1.8 -1.1,-2.9 -1.1,-2.5 1.6,-4.8 1.1,-6.5 -0.3,-0.9 -2.9,-0.6 -3.8,-0.7 -0.9,-0.1 -0.9,-0.9 -2.3,-0.7 -2.9,0.4 -4.6,-0.9 -6,-3.2 -0.7,-1.4 1.3,-3.7 0.8,-5.6 -0.5,-1.7 -1.5,-3.1 -0.3,-5 0.3,-0.5 -1.1,-2.3 -1.5,-2.3 -0.3,-1.6 -3.8,-1.2 -4.9,-1.2 l -4,1.2 c -1.2,0.3 -2.1,1.2 -3.4,0.9 -2,-0.4 -3.6,-1.7 -5.5,-2.1 -1.3,-0.3 -1.7,-1.6 -3,-2 l -2.6,-1.4 c -0.7,0.6 -1.4,1.3 -1.4,2.1 -0.1,2 -1.4,0.8 -1.7,1.6 -0.3,1 0.1,1.2 -1.3,1.5 -1.3,0.3 -1.2,1.2 -2.2,1.6 -0.5,0.2 -0.9,0.2 -1.3,0.6 -0.4,0.4 -0.3,1.4 -1.1,1.4 -0.9,0 -0.8,-0.5 -1.8,0 -0.7,0.4 -1.4,1.6 -1.8,2.2 -0.4,0.6 -0.9,1.2 -1.3,1.8 l -1.2,-0.8 c -1.3,-0.5 -1.7,-1.7 -3.1,-1.9 -1.1,-0.2 -2.8,-0.2 -3.9,-0.2 -0.8,0 -1.6,0.3 -2.5,0.3 -0.9,0 -1.3,2 -2.2,2.6 -0.5,0.3 -1.6,-0.3 -1.8,0.5 -0.6,2.2 1.6,4.4 -1.4,5.9 l -7.8,-10.7 -7.6,5.9 c -1.8,1.2 -2.4,0.8 -4.2,-0.1 -1.5,-0.8 -3.1,-1.2 -4.9,-1.1 -2.7,0 -5.4,-0.8 -7.9,-1.3 -2.6,-0.5 -3.7,-1.2 -5.7,-2.8 -1.4,-1.1 -2.8,-0.9 -4.5,-0.6 -1.7,0.9 -4.9,-0.4 -4.9,2.1 0,1.3 0,4.4 -0.9,5.1 -0.9,0.6 -1.7,1.4 -2.7,1.8 -1.8,0.8 -1.9,2.1 -3.8,2.9 -2.9,1.3 -4.9,1.3 -7.7,-0.1 -1.4,-0.7 -3.1,-0.1 -4.4,-1.1 -0.7,-1.2 -0.6,-2.4 -0.6,-3.8 0,-1.7 -1.4,-1.3 -2.6,-1.8 -4.1,-1.5 -3.4,1.9 -3.4,5 0,2.6 -1.1,2.9 -3.5,3.4 -1.9,0.3 -4.9,-0.9 -6.5,-1.8 -1.2,-0.7 -2.7,-0.7 -4.1,-0.9 -1.6,-0.1 -2.5,-1.6 -3.7,-2.1 -2,-0.7 -1,1.8 -2.2,1.8 -0.7,0 -1.3,-0.7 -1.9,-1 -1.5,-0.6 -2.1,-1.2 -3.9,-0.7 -1.9,0.5 -4.8,1.9 -5.5,3.8 -0.4,1.1 -0.3,2.3 -1.4,3 -1.2,0.7 -2.6,1.2 -4,1.3 l -4.8,1.3 c -1.5,0.4 -3.4,0.2 -4.9,0.2 -3.2,0 -5.8,-1.1 -8.9,-1.6 -1.6,-0.2 -4.4,0.1 -5.8,-0.6 -1.5,0 -3.1,-0.1 -4.5,-0.4 -1.2,-0.2 -3.3,0.7 -4.1,-0.5 -0.6,-1 -2.2,0.3 -3.1,0.3 -0.8,0 -1.3,-0.2 -2,-0.4 -1.8,-0.5 -3.4,-1.4 -5.2,-1.8 -2.6,0 -7.4,-2 -8.1,1.7 -0.3,1.5 2.1,5.8 0.7,6.5 v 0 l 2,2.2 c 0.5,0.6 1.8,0.2 1.8,1.1 0,1 0.3,2.7 0.6,3.6 0.1,0.4 0.3,2.2 1,2.2 0.5,0 1.3,-1.1 1.6,-0.4 0.5,0.9 -0.2,2.1 -0.2,3.1 0,1 0.5,2.4 0.3,3.4 -0.2,0.6 -1.4,2.6 0,2.4 2.4,-0.3 1.4,2.1 1.4,3.8 0,0.8 1,3.2 1.4,4 0.9,1.9 2.9,2.4 3.1,5 0.1,2 1,4.7 -1.3,5.7 -0.9,0 -1.3,-0.3 -2.1,0.3 -0.7,0.599998 -0.3,1.899998 -1.2,2.099998 -0.9,0.2 -1.3,0.2 -1.1,1.3 0.6,3.4 -2.9,3.4 -4.3,5.4 -0.5,0.8 -0.2,1.2 0.2,1.7 0.2,0.2 -0.1,1.1 -0.2,1.6 -1.9,0.2 -0.4,3.9 -2.1,5.8 -0.6,0.7 -1.1,1.8 -1.8,2.6 l 1.3,2.8 c 0,1.4 0.9,3.4 1.1,4.9 0.2,1.2 0.2,2.6 0.1,3.9 -0.1,0.8 -0.4,1.7 -1.1,2.2 -1.2,0.7 -1,7.4 -1,8.8 -0.2,2.7 -1.1,5.3 -1.2,8 0,0.4 -0.5,1.6 -0.1,1.8 1.2,0.4 3,0.2 4.4,0.6 1.3,0.3 5.4,0.7 5.7,2.2 0.2,0.8 -1.4,1.8 -1.9,2.2 -1.1,1.1 -1.2,2.3 -1.6,3.8 -0.2,0.4 -0.8,2.9 -0.4,3.1 1.4,0.6 3.8,1.7 5.4,1.8 1.7,0.1 2,1.3 2.9,2.5 0.9,1.2 1.2,1.3 -0.2,2.3 -1.7,1.3 -2.6,2.7 -4,4.1 -0.7,0.7 -1.3,1.1 -2.1,1.6 -0.8,0.6 0,1.4 0.2,2.1 0,0.8 0.8,1.7 1.2,2.4 0.3,0.6 3,-1 4.3,0.4 1.3,1.3 0.7,2 1.4,3.4 0.8,1.9 2.3,4.1 4,5.2 1.1,0.7 4.3,2.9 4.3,4.3 -0.1,0.7 0.2,1.7 0.3,2.4 0.6,0 1.6,0.6 2.2,0.7 0.8,0.1 1.6,0.2 2.4,0.4 0,1 -1.7,1.8 -2.2,2.6 -1.2,2.2 2.7,2.8 3.7,3.5 1.5,1.1 2.7,4.2 3.5,5.8 z"
     id="path4"
     inkscape:connector-curvature="0"
     style="clip-rule:evenodd;display:inline;fill:none;fill-opacity:1;fill-rule:evenodd;stroke:#ffffff;stroke-width:2;stroke-miterlimit:3.86400008"
     inkscape:label="map-ja" /><path
     class="st0"
     d="m 154.44164,295.24149 -4.1,-4.6 c 0.2,0.2 0.1,0 0.2,0.1 -0.4,-0.1 -1.4,-1.4 -1.7,-1.8 -0.4,-0.5 -1.1,-0.9 -0.4,-1.2 1.6,-0.7 2.6,-8.1 2.3,-9.8 -0.2,-1.6 -0.4,-3.3 -1.2,-4.7 -0.7,-1.2 -1.8,-3.7 -1.8,-5 -0.1,-1.7 -0.3,-4.8 1,-6.1 0.5,-0.5 1,-0.8 1.5,-1.3 0.5,-0.5 0.1,-0.8 0.9,-1.3 1.4,-0.9 2,-1.3 0.8,-2.8 -1.6,-2 0.2,-2.8 1.9,-4 0.6,-0.4 1.4,-1.3 0.2,-1.5 -0.9,-0.2 -2.2,-1.7 -2.5,-2.6 0.4,-1.7 1,-3.5 1,-5.3 0,-1.4 -0.9,-1.9 -1.1,-3.1 0,-0.2 0.6,-1.4 0.6,-2 0.1,-1.9 0.4,-2.2 1.6,-3.5 0.6,-0.7 0.4,-2.9 0.7,-3.7 -0.5,-2.9 -2.3,-3.9 -4.3,-5.5 l -2,-1.6 c -0.3,-0.3 3.2,-2.7 3.8,-3.1 1.8,-1.2 0.5,-1.1 -0.3,-2.1 -0.5,-0.7 0.1,-1.7 0.4,-2.4 0.5,-1 -0.4,-1.9 0.3,-3.2 0.7,-1.2 2.3,-0.8 3.5,-1.3 1,-0.4 1.3,-0.2 2,-1.1 0.8,-1 -0.4,-3.6 -1.1,-4.5 -0.7,-1 -1.4,-1.8 -1.7,-3 -0.5,-2.2 -1.4,-2.7 -2.6,-4.3 -1.1,-1.5 -1.4,-3.4 -1.7,-5.3 -0.6,-1.5 -0.9,-1.6 -1.9,-2.8 -1.2,-1.4 -3.2,-3.5 -2,-5.5 0.3,-0.6 0.3,-1 0.1,-1.6 -0.4,-1.2 1.1,-1.7 -0.1,-3.1 -2.4,-2.8 -8.2,-1 -11.2,-1.2 -0.7,-0.1 -1.1,-0.4 -1.7,-0.6 -0.3,-0.1 -0.9,0.1 -1.2,0.2 -0.7,0.2 -1.8,0.1 -2.4,-0.3 -1.1,-0.7 0.2,-1 0.7,-1.3 -0.1,-0.4 -0.2,-0.7 -0.3,-1.1 -0.4,-1.1 -0.3,-2.2 0.4,-3.1 0.3,-0.4 1.1,-0.9 1.5,-1.1 0.6,-0.2 1.3,0 1.8,-0.4 0.4,-1 0.2,-2.1 0.7,-3.1 0.7,-1.4 2.4,-2.1 2.1,-3.9 -0.3,-2.1 -0.2,-1.7 1.4,-1.3 3,0.8 3.4,-0.8 5.7,-2.1 1,-0.6 2,-1.6 3.1,-1.9 l 4.2,-1.1 c 1.9,0.2 3.7,-0.8 5.5,-1.2 1.9,-0.4 6.6,-0.2 8.5,0.1 1.6,0.3 -0.9,4 0.5,3.6 1.2,-0.4 3,0.8 3.7,-0.4 0.5,-0.8 0,-2.4 1.1,-3 0.5,-0.3 -0.5,-3.7 -0.2,-4.8 0.9,-2.9 3,-1.8 5.2,-2.7 1.8,-0.1 3.9,-2 5.6,-2 0,-1.3 -1.3,-4.1 -1.6,-5.5 -0.8,0 -1.8,0.7 -2.5,0.5 -2.7,-0.9 4.2,-6.6 4.2,-7.9 -1,0 -1.5,-0.4 -1.9,-1.3 -0.3,-0.6 -0.4,-1.4 -1.2,-1.1 -0.3,0.1 -1.2,0 -1.3,0.1 -0.2,0.2 -0.2,1.8 -0.9,1.4 -0.7,-0.5 -5,-4.8 -5,-5.6 v 0 c -0.6,0.1 -0.9,-1.4 -1.4,-1.7 -0.5,-0.4 -1,-0.2 -1.5,-0.7 -0.2,-0.2 -2.2,0.5 -2.8,0.5 -1.7,0 -2.2,-1.8 -3.5,-2.3 -2.3,-1 -4.3,0.1 -6.4,-1.7 -0.8,-0.7 -1.2,-1.4 -2.2,-2 -0.9,-0.5 -2.5,-1 -3.1,-1.8 -0.6,-0.7 -1.1,-1.5 -1.2,-2.5 0,-0.8 -0.4,-3.8 -0.9,-4.1 -1.2,-0.7 -2.9,0.3 -4,-0.8 -1.8,-0.7 -1.2,-1.5 -3.4,-1 -1.3,0.3 -2.4,0.1 -3.7,0.1 0,0.5 1.1,1.3 1.1,2 -1.5,0.5 -2.4,1.1 -3.4,2.5 -1.1,1.7 1.8,3.7 -2,3.7 -1.2,0 -0.7,-1.7 -1.7,-2 -1,-0.3 -3.1,0 -3.7,-0.5 -0.9,-0.4 -1.9,-1.1 -2.9,-0.9 -0.5,0.1 -3.7,1.8 -4,1.2 -0.3,0 0,-2.1 0,-2.5 0,-1.9 0.1,-3 -1.2,-4.6 -0.7,-0.8 -3.3,-5.4 -4.2,-5.4 -0.8,0 -2.7,2.1 -3,1.1 -0.5,-1.9 -1.3,0.1 -2.8,-0.3 -1.1,-0.9 -1.5,-1.2 -2.7,-0.3 -0.6,0.4 -2,0.5 -2.7,0.2 -1.4,-0.7 -0.9,-0.1 -1.9,0.2 -0.8,0.3 -3.999999,0.4 -3.999999,-0.7 0,-1.6 -4.2,-1.9 -5.5,-2.2 -1.8,-0.5 -1.5,-0.7 -0.7,-2.199998 0.9,-1.6 1.5,-2.6 2,-4.4 0.4,-1.7 -0.1,-2.7 -0.1,-4.2 -1.1,0 -2.4,0.9 -3.7,0.8 -2.7,-0.1 -4.4,-2 -6.6,-3.1 -1.1,-0.5 -1.7,-1.1 -2.9,-1.3 -1,-0.2 -3.5,-0.7 -4.5,-1.1 v 0 c -0.1,1.4 -1,2.1 -2.3,3.7 -0.9,1.1 -2.9,4.9 -0.2,4.9 v 0 c 0,0.8 0,1.3 -0.5,2.4 l -1.2,2.499998 c 0.3,0.9 -0.3,2.4 -1.2,2.8 -1.2,0.5 -0.9,-0.2 -1.2,1.4 -0.3,1.7 -0.3,3.4 -0.3,5.2 0,1.5 -1.1,1.6 -1.5,2.6 -0.3,0.9 0,2.8 0,3.8 0,0.6 -3,0.3 -4,0.6 0,0.1 -1.1,1 -1.2,1 -0.1,0.2 -1.1,-0.4 -1.3,-0.4 l -1.3,-0.2 c 0,0 0,0 -0.1,-0.1 0,-0.6 -0.4,-2.1 -1.1,-2.2 0,-0.1 -1.9,-0.7 -2.3,-1.1 -0.9,-1 -1.5,-0.3 -2.4,-0.1 -0.1,0.2 -1.1,1.8 -1.5,1.3 -1.1,0 -1.3,1.3 -1.1,2.1 0.1,0.3 0.7,2.5 0.4,2.5 -0.1,0.2 -0.9,0.6 -1.1,0.6 -0.4,0.1 -1,0.3 -1.4,0.1 -0.4,-0.2 -0.7,-0.2 -0.9,0.1 -0.6,0.8 -3,2.1 -3.1,0.4 0,-0.4 -1.9,-0.9 -2.3,-0.9 -2.5,0 -2.8,2.1 -5.6,2 -1.2,-0.1 -1.1,0.5 -2,1.1 -1.7,1.2 0.1,1.8 0.5,3.7 0.1,0.4 -0.6,5.5 -0.9,5.6 -1.1,0.5 -0.6,1 -1.2,2.1 -0.3,0.6 -1.7,2 -1.7,2.4 0.1,1.1 0.2,2.8 -0.2,3.6 -0.3,0.7 -1.8,2 -1.8,2.6 -0.3,0.1 -0.4,1.9 -0.5,2.2 -0.8,0.2 -2.3,3.3 -2.9,4 -0.4,0.6 -4.1,3.3 -4.8,3.4 0,0.2 -0.6,0.4 -0.7,0.6 -0.2,0.3 0,0.8 -0.3,1.2 -0.3,0.3 -1.2,0.4 -1.3,0.9 -0.5,0.3 -2.1,3.3 -2.9,2.6 -0.5,-0.6 -1.4,0.2 -2.1,0.8 -0.4,0.3 0.1,1.9 -0.3,2.4 -0.6,1 -0.8,0.6 -1.1,2 l -1.2,4.3 c -0.4,1.3 -0.9,0.9 -0.9,2.4 0,0.8 -0.7,1.3 -0.7,2.1 0.1,1.8 1.8,1.4 -0.2,2.6 -0.7000002,0.4 1.2,2.4 -1.0000002,2.4 -0.6,0.2 -0.8,1.7 -1,2.3 -0.5,1.6 -1.9,1.1 -1.9,2.8 0,1.7 -1.8,0.8 -2.5,1.5 1.5,1.9 0.6,2.9 -0.4,4.7 -0.2,0.4 -1,0.4 -1,0.9 0,0.5 1.1,1.1 0.7,1.4 -0.4,0.3 -1.5,0.6 -1.7,1 0.2,0.1 0.3,0.3 0.4,0.5 0.1,0.7 0.9,4.2 1.4,4.4 1.8,0.7 2.1,-0.4 2.3,2.1 0.1,2.7 2.6,2 3.4,3.6 0.6,1.2 -1.4,1.9 -0.9,3 0.5,1.1 1.7,2.1 1.7,3.4 -0.1,2.3 -0.2,2.9 1.1000002,4.5 0.7,0.8 -2.2000002,0.7 -0.6,3 0.8,1.1 1.3,0.7 1.6,2.3 0.3,1.4 0.9,4.3 -0.2,5.5 -1.2,1.3 0.6,3.9 0.3,5.7 -0.4,2.8 0.2,3.5 1.6,5.5 1.3,1.8 -0.5,2.5 -0.9,4.9 -0.1,0.6 1.3,1 1.9,2.5 0.7,1.9 0.7,4.1 0.8,4.6 0.3,1.4 0.3,2.8 0.4,4.3 v 0 c 0.7,0 2.1,1.2 3,1.4 1.9,0.5 3.7,-0.4 5.4,-1.2 2.6,-2 6.4,-3.2 9.6,-3.7 3.5,-0.6 7,0.2 10.6,0 3.9,-1 9.2,-0.4 13.3,-0.4 4.3,0 6.6,0.7 10.5,2.3 1.2,0.4 2.9,1.7 3.9,2.6 1.7,1.4 4.5,1.9 6.4,2.9 0.7,0.4 4.2,1.8 4.4,2.4 h 0.1 c 0,-0.5 -0.9,-1.3 -0.9,-1.7 1.7,0 4.3,2.3 6.1,2.3 1,0.5 0.6,1.4 1.5,1.6 0.8,0.2 1.7,0.1 2.5,0.3 1.4,0.3 2.7,1.7 4,2.3 2.3,0.9 4.799999,2.7 6.799999,4 l 6.8,4.3 10.4,6.7 c 1.6,1.1 3.6,2 4.9,3.5 1.2,1.3 3.5,2.7 4.3,4.2 1.3,0.9 2.4,2.8 3.4,4 3.6,4.2 8.4,9.6 8.9,15.4 0.1,0.8 0.8,1.3 1,2.1 0.4,2.4 1.4,4.6 3.6,5.8 1.9,1 3.2,0.4 5.1,-0.2 v 0 c 0.1,-0.4 0.3,-0.8 0.4,-1.2 0.6,-1.4 -0.4,-3 -1,-4.3 -0.8,-1.8 -0.8,-3.6 -0.6,-5.6 0.9,-3.4 2.3,-4.7 4.4,-5.5 z"
     id="path18"
     inkscape:connector-curvature="0"
     style="clip-rule:evenodd;display:inline;fill:none;fill-rule:evenodd;stroke:#ffffff;stroke-width:2;stroke-miterlimit:3.86400008"
     inkscape:label="map-hu" /><text
     xml:space="preserve"
     style="font-style:normal;font-variant:normal;font-weight:normal;font-stretch:normal;font-size:13.33333302px;line-height:1.25;font-family:Raleway;-inkscape-font-specification:Raleway;letter-spacing:0px;word-spacing:0px;display:inline;fill:#000000;fill-opacity:1;stroke:none"
     x="294.70844"
     y="118.33366"
     id="text4498"
     inkscape:label="CO"><tspan
       sodipodi:role="line"
       id="tspan4496"
       x="294.70844"
       y="118.33366"
       style="font-style:normal;font-variant:normal;font-weight:600;font-stretch:normal;font-size:18.66666603px;font-family:Raleway;-inkscape-font-specification:'Raleway Semi-Bold';fill:#ffffff;fill-opacity:1">CÓRDOBA</tspan></text>
<text
     inkscape:label="JA"
     id="text4502"
     y="130.24107"
     x="489.19614"
     style="font-style:normal;font-variant:normal;font-weight:normal;font-stretch:normal;font-size:13.33333302px;line-height:1.25;font-family:Raleway;-inkscape-font-specification:Raleway;letter-spacing:0px;word-spacing:0px;display:inline;fill:#000000;fill-opacity:1;stroke:none"
     xml:space="preserve"><tspan
       style="font-style:normal;font-variant:normal;font-weight:600;font-stretch:normal;font-size:18.66666603px;font-family:Raleway;-inkscape-font-specification:'Raleway Semi-Bold';fill:#ffffff;fill-opacity:1"
       y="130.24107"
       x="489.19614"
       id="tspan4500"
       sodipodi:role="line">JAÉN</tspan></text>
<text
     xml:space="preserve"
     style="font-style:normal;font-variant:normal;font-weight:normal;font-stretch:normal;font-size:13.33333302px;line-height:1.25;font-family:Raleway;-inkscape-font-specification:Raleway;letter-spacing:0px;word-spacing:0px;display:inline;fill:#000000;fill-opacity:1;stroke:none"
     x="190.51857"
     y="213.59296"
     id="text4506"
     inkscape:label="SE"><tspan
       sodipodi:role="line"
       id="tspan4504"
       x="190.51857"
       y="213.59296"
       style="font-style:normal;font-variant:normal;font-weight:600;font-stretch:normal;font-size:18.66666603px;font-family:Raleway;-inkscape-font-specification:'Raleway Semi-Bold';fill:#ffffff;fill-opacity:1">SEVILLA</tspan></text>
<text
     inkscape:label="HU"
     id="text4510"
     y="202.67783"
     x="37.706787"
     style="font-style:normal;font-variant:normal;font-weight:normal;font-stretch:normal;font-size:13.33333302px;line-height:1.25;font-family:Raleway;-inkscape-font-specification:Raleway;letter-spacing:0px;word-spacing:0px;display:inline;fill:#000000;fill-opacity:1;stroke:none"
     xml:space="preserve"><tspan
       style="font-style:normal;font-variant:normal;font-weight:600;font-stretch:normal;font-size:18.66666603px;font-family:Raleway;-inkscape-font-specification:'Raleway Semi-Bold';fill:#ffffff;fill-opacity:1"
       y="202.67783"
       x="37.706787"
       id="tspan4508"
       sodipodi:role="line">HUELVA</tspan></text>
<text
     xml:space="preserve"
     style="font-style:normal;font-variant:normal;font-weight:normal;font-stretch:normal;font-size:13.33333302px;line-height:1.25;font-family:Raleway;-inkscape-font-specification:Raleway;letter-spacing:0px;word-spacing:0px;display:inline;fill:#000000;fill-opacity:1;stroke:none"
     x="184.56487"
     y="342.58994"
     id="text4514"
     inkscape:label="CA"><tspan
       sodipodi:role="line"
       id="tspan4512"
       x="184.56487"
       y="342.58994"
       style="font-style:normal;font-variant:normal;font-weight:600;font-stretch:normal;font-size:18.66666603px;font-family:Raleway;-inkscape-font-specification:'Raleway Semi-Bold';fill:#ffffff;fill-opacity:1">CÁDIZ</tspan></text>
<text
     inkscape:label="MA"
     id="text4518"
     y="309.84457"
     x="329.43835"
     style="font-style:normal;font-variant:normal;font-weight:normal;font-stretch:normal;font-size:13.33333302px;line-height:1.25;font-family:Raleway;-inkscape-font-specification:Raleway;letter-spacing:0px;word-spacing:0px;display:inline;fill:#000000;fill-opacity:1;stroke:none"
     xml:space="preserve"><tspan
       style="font-style:normal;font-variant:normal;font-weight:600;font-stretch:normal;font-size:18.66666603px;font-family:Raleway;-inkscape-font-specification:'Raleway Semi-Bold';fill:#ffffff;fill-opacity:1"
       y="309.84457"
       x="329.43835"
       id="tspan4516"
       sodipodi:role="line">MÁLAGA</tspan></text>
<text
     xml:space="preserve"
     style="font-style:normal;font-variant:normal;font-weight:normal;font-stretch:normal;font-size:13.33333302px;line-height:1.25;font-family:Raleway;-inkscape-font-specification:Raleway;letter-spacing:0px;word-spacing:0px;display:inline;fill:#000000;fill-opacity:1;stroke:none"
     x="458.4353"
     y="263.20721"
     id="text4522"
     inkscape:label="CA"><tspan
       sodipodi:role="line"
       id="tspan4520"
       x="458.4353"
       y="263.20721"
       style="font-style:normal;font-variant:normal;font-weight:600;font-stretch:normal;font-size:18.66666603px;font-family:Raleway;-inkscape-font-specification:'Raleway Semi-Bold';fill:#ffffff;fill-opacity:1">GRANADA</tspan></text>
<text
     inkscape:label="AL"
     id="text4526"
     y="275.11462"
     x="613.23169"
     style="font-style:normal;font-variant:normal;font-weight:normal;font-stretch:normal;font-size:13.33333302px;line-height:1.25;font-family:Raleway;-inkscape-font-specification:Raleway;letter-spacing:0px;word-spacing:0px;display:inline;fill:#000000;fill-opacity:1;stroke:none"
     xml:space="preserve"><tspan
       style="font-style:normal;font-variant:normal;font-weight:600;font-stretch:normal;font-size:18.66666603px;font-family:Raleway;-inkscape-font-specification:'Raleway Semi-Bold';fill:#ffffff;fill-opacity:1"
       y="275.11462"
       x="613.23169"
       id="tspan4524"
       sodipodi:role="line">ALMERÍA</tspan></text>
</svg>